<svg width="1430" height="440" viewBox="0 0 1430 440" fill="none" xmlns="http://www.w3.org/2000/svg">
<g clip-path="url(#clip0_2_50)">
<mask id="mask0_2_50" style="mask-type:luminance" maskUnits="userSpaceOnUse" x="0" y="0" width="1430" height="440">
<path d="M0 3.05176e-05H1429.68V439.304H0V3.05176e-05Z" fill="white"/>
</mask>
<g mask="url(#mask0_2_50)">
<path d="M598.4 100.833H555.085C554.773 98.5158 554.426 96.7424 554.042 95.5038C553.656 94.2704 552.961 92.6104 551.958 90.5238C550.953 88.4384 549.37 86.8584 547.209 85.7771C545.045 84.6984 542.421 84.1544 539.334 84.1544C535.317 84.1544 531.807 85.4291 528.795 87.9758C525.784 90.5238 524.278 93.7304 524.278 97.5891C524.278 102.532 526.13 106.314 529.837 108.937C533.544 111.566 543.502 116.508 559.718 123.762C574.851 130.56 585.313 137.776 591.104 145.42C596.895 153.064 599.79 162.214 599.79 172.87C599.79 179.51 598.748 185.805 596.664 191.746C594.578 197.694 591.37 203.253 587.049 208.425C582.725 213.6 576.51 217.73 568.404 220.817C560.297 223.904 550.837 225.448 540.029 225.448C530.608 225.448 522.153 224.252 514.665 221.86C507.174 219.468 501.191 216.417 496.713 212.709C492.233 209.005 488.568 204.644 485.711 199.622C482.852 194.605 480.884 189.777 479.805 185.146C478.722 180.514 478.182 175.805 478.182 171.017V165.458H521.729C521.729 174.106 523.66 180.166 527.521 183.64C531.378 187.116 535.397 188.85 539.565 188.85C544.505 188.85 548.52 187.154 551.611 183.756C554.697 180.36 556.244 176.574 556.244 172.406C556.244 167.157 554.274 163.18 550.336 160.476C546.4 157.778 537.169 153.337 522.657 147.157C518.951 145.616 515.86 144.302 513.392 143.221C510.918 142.142 507.406 140.093 502.853 137.084C498.296 134.07 494.629 130.984 491.85 127.817C489.069 124.653 486.523 120.405 484.207 115.078C481.889 109.749 480.732 104.074 480.732 98.0531C480.732 87.8598 483.778 78.7891 489.881 70.8371C495.98 62.8838 503.508 57.0158 512.465 53.2318C521.42 49.4491 530.84 47.5571 540.724 47.5571C549.678 47.5571 558.288 49.2171 566.55 52.5358C574.811 55.8598 581.643 60.6851 587.049 67.0131C593.998 75.5064 597.781 86.7811 598.4 100.833Z" fill="#292F40"/>
<path d="M657.003 136.041C657.003 149.938 661.324 161.907 669.973 171.943C678.62 181.982 690.047 186.999 704.256 186.999C718.616 186.999 729.887 181.75 738.073 171.249C746.256 160.749 750.349 149.243 750.349 136.735C750.349 124.074 746.216 112.453 737.957 101.873C729.695 91.2992 718.305 86.0086 703.792 86.0086C689.431 86.0086 678.041 91.0672 669.625 101.178C661.208 111.297 657.003 122.915 657.003 136.041ZM619.941 101.989C622.409 95.8152 625.848 89.7939 630.249 83.9232C634.651 78.0552 640.208 72.2659 646.925 66.5499C653.644 60.8392 661.903 56.2432 671.711 52.7672C681.515 49.2952 692.131 47.5565 703.56 47.5565C729.503 47.5565 751.081 56.2819 768.301 73.7299C785.517 91.1832 794.128 112.105 794.128 136.505C794.128 160.903 785.517 181.827 768.301 199.275C751.081 216.726 729.423 225.449 703.328 225.449C686.032 225.449 670.357 221.245 656.308 212.825C642.255 204.411 631.559 193.639 624.227 180.514C616.891 167.389 613.224 153.411 613.224 138.587C613.224 125.153 615.46 112.957 619.941 101.989Z" fill="#292F40"/>
<path d="M859.679 89.2499V136.967H875.199C881.22 136.967 886.317 136.121 890.487 134.419C894.655 132.722 897.627 130.479 899.404 127.702C901.177 124.921 902.375 122.337 902.993 119.942C903.609 117.55 903.92 115.039 903.92 112.414C903.92 104.85 901.373 99.0953 896.276 95.1566C891.18 91.2193 884.307 89.2499 875.661 89.2499H859.679ZM817.755 222.207V50.7979H871.956C886.468 50.7979 897.435 51.7246 904.848 53.5793C912.26 55.4326 918.897 58.5993 924.767 63.0766C931.56 68.4833 936.772 75.3526 940.403 83.6913C944.028 92.0299 945.845 100.755 945.845 109.865C945.845 115.271 945.112 120.675 943.645 126.079C942.176 131.486 939.899 136.851 936.812 142.178C933.721 147.505 929.284 152.137 923.492 156.077C917.703 160.013 910.945 162.601 903.225 163.837L949.783 222.207H899.751L860.143 166.846H859.679V222.207H817.755Z" fill="#292F40"/>
<path d="M995.414 222.207V89.2498H961.595V50.7978H1072.78V89.2498H1039.19V222.207H995.414Z" fill="#292F40"/>
<path d="M1090.38 222.207V50.7978H1185.58V89.2498H1132.31V115.887H1183.96V154.338H1132.31V183.755H1185.58V222.207H1090.38Z" fill="#292F40"/>
<path d="M1254.14 89.2499V183.755H1272.91C1280.78 183.755 1287.53 182.481 1293.17 179.935C1298.81 177.386 1303.13 173.835 1306.14 169.278C1309.16 164.727 1311.36 159.781 1312.75 154.454C1314.14 149.127 1314.83 143.221 1314.83 136.735C1314.83 124.226 1312.05 113.653 1306.49 105.002C1299.54 94.5019 1288.43 89.2499 1273.14 89.2499H1254.14ZM1210.36 222.207V50.7979H1267.12C1271.59 50.7979 1275.22 50.8779 1278 51.0299C1280.78 51.1873 1284.84 51.4939 1290.16 51.9566C1295.49 52.4206 1300.16 53.3472 1304.18 54.7379C1308.19 56.1272 1312.59 57.9433 1317.38 60.1806C1322.16 62.4206 1326.72 65.4713 1331.04 69.3299C1335.37 73.1926 1339.3 77.6699 1342.86 82.7646C1353.36 97.1259 1358.61 114.885 1358.61 136.041C1358.61 148.239 1357.02 159.359 1353.86 169.394C1350.69 179.435 1345.75 188.503 1339.04 196.61C1332.32 204.718 1323.13 211.013 1311.47 215.49C1299.81 219.97 1286.11 222.207 1270.36 222.207H1210.36Z" fill="#292F40"/>
<path d="M576.887 288.217H540.967C540.709 286.294 540.421 284.823 540.103 283.798C539.782 282.774 539.206 281.398 538.374 279.667C537.539 277.938 536.227 276.627 534.435 275.731C532.642 274.835 530.465 274.385 527.905 274.385C524.574 274.385 521.662 275.442 519.166 277.555C516.667 279.667 515.419 282.327 515.419 285.527C515.419 289.626 516.957 292.763 520.029 294.939C523.103 297.118 531.363 301.215 544.81 307.231C557.357 312.867 566.034 318.853 570.837 325.193C575.638 331.531 578.039 339.118 578.039 347.954C578.039 353.462 577.175 358.682 575.446 363.609C573.718 368.541 571.058 373.15 567.475 377.439C563.887 381.729 558.734 385.155 552.013 387.715C545.29 390.275 537.445 391.558 528.482 391.558C520.669 391.558 513.658 390.562 507.449 388.579C501.235 386.595 496.274 384.066 492.562 380.993C488.846 377.919 485.806 374.303 483.438 370.141C481.067 365.981 479.434 361.975 478.539 358.135C477.642 354.293 477.195 350.389 477.195 346.417V341.807H513.306C513.306 348.979 514.906 354.006 518.109 356.886C521.307 359.769 524.641 361.209 528.098 361.209C532.194 361.209 535.523 359.798 538.086 356.982C540.646 354.166 541.929 351.026 541.929 347.57C541.929 343.217 540.295 339.921 537.029 337.678C533.765 335.438 526.11 331.755 514.075 326.633C511.002 325.353 508.439 324.266 506.393 323.366C504.342 322.473 501.429 320.773 497.651 318.277C493.874 315.781 490.833 313.221 488.527 310.594C486.223 307.971 484.11 304.445 482.189 300.029C480.269 295.61 479.309 290.903 479.309 285.91C479.309 277.458 481.835 269.938 486.895 263.339C491.953 256.747 498.195 251.881 505.625 248.742C513.049 245.605 520.861 244.035 529.058 244.035C536.483 244.035 543.623 245.415 550.475 248.165C557.323 250.921 562.991 254.921 567.475 260.17C573.238 267.215 576.374 276.565 576.887 288.217Z" fill="#292F40"/>
<path d="M612.422 388.868V278.611H584.378V246.726H676.578V278.611H648.726V388.868H612.422Z" fill="#292F40"/>
<path d="M718.451 317.413C718.451 328.939 722.035 338.864 729.208 347.187C736.378 355.512 745.854 359.672 757.636 359.672C769.546 359.672 778.891 355.319 785.682 346.609C792.466 337.901 795.862 328.363 795.862 317.989C795.862 307.491 792.434 297.852 785.584 289.08C778.732 280.311 769.287 275.921 757.251 275.921C745.343 275.921 735.898 280.117 728.92 288.504C721.939 296.892 718.451 306.531 718.451 317.413ZM687.718 289.177C689.764 284.057 692.616 279.061 696.266 274.192C699.915 269.329 704.524 264.527 710.095 259.787C715.666 255.051 722.515 251.239 730.648 248.359C738.779 245.476 747.582 244.036 757.06 244.036C778.574 244.036 796.467 251.271 810.747 265.743C825.026 280.215 832.164 297.565 832.164 317.797C832.164 338.031 825.026 355.383 810.747 369.851C796.467 384.325 778.507 391.557 756.868 391.557C742.524 391.557 729.527 388.068 717.875 381.089C706.22 374.111 697.352 365.177 691.271 354.292C685.188 343.411 682.147 331.819 682.147 319.527C682.147 308.384 684.002 298.269 687.718 289.177Z" fill="#292F40"/>
<path d="M886.523 278.611V318.181H899.394C904.387 318.181 908.614 317.479 912.071 316.067C915.529 314.661 917.993 312.801 919.466 310.498C920.937 308.191 921.931 306.047 922.443 304.062C922.954 302.078 923.213 299.998 923.213 297.819C923.213 291.546 921.099 286.774 916.873 283.51C912.647 280.245 906.947 278.611 899.778 278.611H886.523ZM851.757 388.869V246.725H896.703C908.739 246.725 917.834 247.495 923.981 249.031C930.126 250.567 935.631 253.194 940.501 256.907C946.133 261.39 950.454 267.086 953.466 274.002C956.473 280.918 957.979 288.153 957.979 295.706C957.979 300.191 957.37 304.671 956.155 309.151C954.935 313.637 953.049 318.083 950.487 322.503C947.925 326.919 944.245 330.762 939.443 334.029C934.641 337.294 929.038 339.438 922.635 340.461L961.245 388.869H919.754L886.909 342.961H886.523V388.869H851.757Z" fill="#292F40"/>
<path d="M1037.12 290.903L1022.52 339.501H1052.29L1037.69 290.903H1037.5H1037.12ZM1061.9 368.314H1012.53L1005.04 388.869H966.047L1023.1 246.725H1051.72L1108.19 388.869H1068.81L1061.9 368.314Z" fill="#292F40"/>
<path d="M1175.8 308.001H1260.13C1260.25 309.668 1260.32 312.164 1260.32 315.49C1260.32 330.858 1256.7 344.433 1249.47 356.213C1242.23 367.997 1232.92 376.862 1221.52 382.816C1210.12 388.772 1197.77 391.748 1184.45 391.748C1163.06 391.748 1145.13 384.482 1130.66 369.948C1116.19 355.416 1108.96 337.841 1108.96 317.22C1108.96 296.22 1116.32 278.774 1131.05 264.877C1145.77 250.984 1163.77 244.036 1185.02 244.036C1201.67 244.036 1216.68 248.904 1230.07 258.634C1243.45 268.369 1252.13 280.277 1256.09 294.362H1215.37C1208.46 282.068 1198.02 275.922 1184.06 275.922C1174.08 275.922 1165.11 279.541 1157.17 286.774C1149.23 294.012 1145.26 304.158 1145.26 317.22C1145.26 331.052 1149.23 341.614 1157.17 348.913C1165.11 356.213 1174.14 359.862 1184.26 359.862C1193.09 359.862 1200.49 357.816 1206.44 353.716C1212.4 349.62 1216.33 344.05 1218.25 337.005H1175.8V308.001Z" fill="#292F40"/>
<path d="M1279.14 388.868V246.726H1358.09V278.611H1313.91V300.702H1356.74V332.588H1313.91V356.982H1358.09V388.868H1279.14Z" fill="#292F40"/>
<path d="M415.236 101.129V206.696C406.35 200.369 395.45 196.632 383.718 196.632H350.849V120.368C350.849 115.709 347.081 111.941 342.424 111.941H143.885C139.226 111.941 135.46 115.709 135.46 120.368V141.993H102.59C90.857 141.993 79.9583 145.732 71.073 152.059V101.129C71.073 71.5385 95.0557 47.5559 124.646 47.5559H361.661C391.252 47.5559 415.236 71.5385 415.236 101.129Z" fill="#F7AD00"/>
<path d="M415.236 251.154V338.144C415.236 367.736 391.252 391.718 361.661 391.718H124.646C95.0557 391.718 71.073 367.736 71.073 338.144V196.516C71.073 179.118 85.1917 164.998 102.59 164.998H169.853C187.25 164.998 201.37 179.118 201.37 196.516V219.637H383.718C401.116 219.637 415.236 233.757 415.236 251.154Z" fill="#F7AD00"/>
<path d="M350.849 219.637V318.906C350.849 323.565 347.082 327.332 342.423 327.332H143.885C139.226 327.332 135.459 323.565 135.459 318.906V164.998H169.853C187.25 164.998 201.37 179.118 201.37 196.516V219.637H350.849Z" fill="white"/>
<mask id="mask1_2_50" style="mask-type:luminance" maskUnits="userSpaceOnUse" x="71" y="164" width="345" height="228">
<path d="M71.0725 164.999H415.236V391.718H71.0725V164.999Z" fill="white"/>
</mask>
<g mask="url(#mask1_2_50)">
<g opacity="0.5">
<path d="M415.236 251.154V338.144C415.236 367.736 391.252 391.718 361.661 391.718H124.646C95.0557 391.718 71.073 367.736 71.073 338.144V196.516C71.073 179.118 85.1917 164.998 102.59 164.998H169.853C187.25 164.998 201.37 179.118 201.37 196.516V219.637H383.718C401.116 219.637 415.236 233.757 415.236 251.154Z" fill="#F7AD00"/>
</g>
</g>
</g>
</g>
<defs>
<clipPath id="clip0_2_50">
<rect width="1429.68" height="439.304" fill="white"/>
</clipPath>
</defs>
</svg>
