<svg width="440" height="440" viewBox="0 0 440 440" fill="none" xmlns="http://www.w3.org/2000/svg">
<path d="M392.163 101.573V207.14C383.278 200.813 372.378 197.076 360.646 197.076H327.776V120.812C327.776 116.153 324.008 112.385 319.351 112.385H120.812C116.154 112.385 112.387 116.153 112.387 120.812V142.437H79.5178C67.7845 142.437 56.8858 146.176 48.0005 152.503V101.573C48.0005 71.9828 71.9832 48.0001 101.574 48.0001H338.588C368.179 48.0001 392.163 71.9828 392.163 101.573Z" fill="#F7AD00"/>
<path d="M392.163 251.599V338.588C392.163 368.18 368.179 392.163 338.588 392.163H101.574C71.9832 392.163 48.0005 368.18 48.0005 338.588V196.96C48.0005 179.563 62.1192 165.443 79.5178 165.443H146.78C164.178 165.443 178.298 179.563 178.298 196.96V220.081H360.646C378.043 220.081 392.163 234.201 392.163 251.599Z" fill="#F7AD00"/>
<path d="M327.776 220.081V319.351C327.776 324.009 324.009 327.776 319.351 327.776H120.812C116.153 327.776 112.387 324.009 112.387 319.351V165.443H146.78C164.177 165.443 178.297 179.563 178.297 196.96V220.081H327.776Z" fill="white"/>
<mask id="mask0_282_1495" style="mask-type:luminance" maskUnits="userSpaceOnUse" x="48" y="165" width="345" height="228">
<path d="M48 165.443H392.163V392.163H48V165.443Z" fill="white"/>
</mask>
<g mask="url(#mask0_282_1495)">
<g opacity="0.5">
<path d="M392.163 251.599V338.588C392.163 368.18 368.179 392.163 338.588 392.163H101.574C71.9832 392.163 48.0005 368.18 48.0005 338.588V196.96C48.0005 179.563 62.1192 165.443 79.5178 165.443H146.78C164.178 165.443 178.298 179.563 178.298 196.96V220.081H360.646C378.043 220.081 392.163 234.201 392.163 251.599Z" fill="#F7AD00"/>
</g>
</g>
</svg>
