<svg xmlns="http://www.w3.org/2000/svg" width="512" height="512" viewBox="0 0 512 512">
<rect width="100%" height="100%" fill="#a8d5cf"/>
<path d="M 0.00,9.85 L 6.00,11.53 L 12.00,11.81 L 18.00,9.59 L 24.00,5.15 L 30.00,0.03 L 36.00,-3.66 L 42.00,-4.30 L 48.00,-1.58 L 54.00,3.35 L 60.00,8.44 L 66.00,11.79 L 72.00,12.52 L 78.00,11.21 L 84.00,9.47 L 90.00,9.05 L 96.00,10.85 L 102.00,14.41 L 108.00,18.09 L 114.00,19.91 L 120.00,18.57 L 126.00,14.19 L 132.00,8.25 L 138.00,2.93 L 144.00,0.03 L 150.00,0.13 L 156.00,2.39 L 162.00,5.01 L 168.00,6.26 L 174.00,5.37 L 180.00,2.97 L 186.00,0.74 L 192.00,0.49 L 198.00,3.18 L 204.00,8.34 L 210.00,14.26 L 216.00,18.74 L 222.00,20.22 L 228.00,18.48 L 234.00,14.70 L 240.00,10.88 L 246.00,8.72 L 252.00,8.85 L 258.00,10.46 L 264.00,11.85 L 270.00,11.36 L 276.00,8.31 L 282.00,3.42 L 288.00,-1.46 L 294.00,-4.26 L 300.00,-3.74 L 306.00,-0.09 L 312.00,5.13 L 318.00,9.82 L 324.00,12.33 L 330.00,12.25 L 336.00,10.58 L 342.00,9.11 L 348.00,9.39 L 354.00,11.90 L 360.00,15.72 L 366.00,18.99 L 372.00,19.84 L 378.00,17.40 L 384.00,12.28 L 390.00,6.30 L 396.00,1.63 L 402.00,-0.26 L 408.00,0.72 L 414.00,3.32 L 420.00,5.64 L 426.00,6.20 L 432.00,4.67 L 438.00,2.11 L 444.00,0.36 L 450.00,1.05 L 456.00,4.69 L 462.00,10.34 L 468.00,16.01 L 474.00,19.61 L 480.00,19.97 L 486.00,17.35 L 492.00,13.33 L 498.00,9.91 L 504.00,8.52 L 510.00,9.29" fill="none" stroke="white" stroke-opacity="0.25" stroke-width="3"/>
<path d="M 0.00,10.02 L 6.00,3.79 L 12.00,-0.62 L 18.00,-0.74 L 24.00,3.51 L 30.00,9.85 L 36.00,14.97 L 42.00,16.61 L 48.00,14.88 L 54.00,12.16 L 60.00,11.55 L 66.00,14.86 L 72.00,21.47 L 78.00,28.57 L 84.00,32.90 L 90.00,32.70 L 96.00,28.75 L 102.00,23.87 L 108.00,21.12 L 114.00,21.95 L 120.00,25.26 L 126.00,28.14 L 132.00,27.72 L 138.00,22.99 L 144.00,15.49 L 150.00,8.43 L 156.00,4.78 L 162.00,5.46 L 168.00,8.86 L 174.00,11.89 L 180.00,11.95 L 186.00,8.57 L 192.00,3.74 L 198.00,0.66 L 204.00,1.75 L 210.00,7.13 L 216.00,14.50 L 222.00,20.52 L 228.00,22.82 L 234.00,21.41 L 240.00,18.60 L 246.00,17.50 L 252.00,20.02 L 258.00,25.63 L 264.00,31.62 L 270.00,34.77 L 276.00,33.31 L 282.00,28.02 L 288.00,21.73 L 294.00,17.62 L 300.00,17.24 L 306.00,19.64 L 312.00,21.98 L 318.00,21.38 L 324.00,16.77 L 330.00,9.62 L 336.00,3.12 L 342.00,0.22 L 348.00,1.88 L 354.00,6.51 L 360.00,10.98 L 366.00,12.57 L 372.00,10.68 L 378.00,7.14 L 384.00,5.10 L 390.00,6.98 L 396.00,12.92 L 402.00,20.66 L 408.00,26.83 L 414.00,29.01 L 420.00,27.14 L 426.00,23.50 L 432.00,21.26 L 438.00,22.42 L 444.00,26.60 L 450.00,31.21 L 456.00,33.08 L 462.00,30.44 L 468.00,24.05 L 474.00,16.76 L 480.00,11.82 L 486.00,10.88 L 492.00,13.10 L 498.00,15.67 L 504.00,15.66 L 510.00,11.93" fill="none" stroke="white" stroke-opacity="0.25" stroke-width="3"/>
<path d="M 0.00,18.53 L 6.00,25.54 L 12.00,32.50 L 18.00,38.30 L 24.00,42.10 L 30.00,43.52 L 36.00,42.67 L 42.00,40.16 L 48.00,36.87 L 54.00,33.75 L 60.00,31.54 L 66.00,30.58 L 72.00,30.76 L 78.00,31.56 L 84.00,32.16 L 90.00,31.77 L 96.00,29.77 L 102.00,25.99 L 108.00,20.73 L 114.00,14.75 L 120.00,9.08 L 126.00,4.78 L 132.00,2.70 L 138.00,3.27 L 144.00,6.37 L 150.00,11.39 L 156.00,17.35 L 162.00,23.17 L 168.00,27.91 L 174.00,30.97 L 180.00,32.26 L 186.00,32.15 L 192.00,31.35 L 198.00,30.69 L 204.00,30.90 L 210.00,32.36 L 216.00,34.97 L 222.00,38.23 L 228.00,41.28 L 234.00,43.17 L 240.00,43.11 L 246.00,40.68 L 252.00,35.97 L 258.00,29.56 L 264.00,22.44 L 270.00,15.75 L 276.00,10.54 L 282.00,7.52 L 288.00,6.90 L 294.00,8.39 L 300.00,11.26 L 306.00,14.59 L 312.00,17.48 L 318.00,19.29 L 324.00,19.83 L 330.00,19.36 L 336.00,18.54 L 342.00,18.18 L 348.00,19.06 L 354.00,21.66 L 360.00,25.99 L 366.00,31.59 L 372.00,37.59 L 378.00,42.92 L 384.00,46.55 L 390.00,47.77 L 396.00,46.32 L 402.00,42.49 L 408.00,37.04 L 414.00,31.00 L 420.00,25.45 L 426.00,21.23 L 432.00,18.77 L 438.00,18.01 L 444.00,18.44 L 450.00,19.29 L 456.00,19.72 L 462.00,19.12 L 468.00,17.24 L 474.00,14.34 L 480.00,11.04 L 486.00,8.28 L 492.00,6.96 L 498.00,7.79 L 504.00,11.01 L 510.00,16.38" fill="none" stroke="white" stroke-opacity="0.25" stroke-width="3"/>
<path d="M 0.00,32.88 L 6.00,36.51 L 12.00,38.09 L 18.00,35.86 L 24.00,30.09 L 30.00,22.89 L 36.00,17.23 L 42.00,15.32 L 48.00,17.58 L 54.00,22.34 L 60.00,26.78 L 66.00,28.39 L 72.00,26.23 L 78.00,21.49 L 84.00,16.81 L 90.00,14.95 L 96.00,17.32 L 102.00,23.26 L 108.00,30.38 L 114.00,35.75 L 120.00,37.43 L 126.00,35.45 L 132.00,31.75 L 138.00,29.22 L 144.00,30.09 L 150.00,34.84 L 156.00,41.88 L 162.00,48.37 L 168.00,51.68 L 174.00,50.72 L 180.00,46.51 L 186.00,41.63 L 192.00,38.88 L 198.00,39.81 L 204.00,43.93 L 210.00,48.96 L 216.00,52.02 L 222.00,51.09 L 228.00,46.14 L 234.00,39.08 L 240.00,32.84 L 246.00,29.82 L 252.00,30.72 L 258.00,34.15 L 264.00,37.38 L 270.00,37.80 L 276.00,34.26 L 282.00,27.70 L 288.00,20.69 L 294.00,16.11 L 300.00,15.66 L 306.00,19.02 L 312.00,24.00 L 318.00,27.72 L 324.00,28.07 L 330.00,24.83 L 336.00,19.78 L 342.00,15.77 L 348.00,15.26 L 354.00,18.99 L 360.00,25.65 L 366.00,32.49 L 372.00,36.77 L 378.00,37.11 L 384.00,34.27 L 390.00,30.64 L 396.00,29.06 L 402.00,31.28 L 408.00,37.06 L 414.00,44.26 L 420.00,49.92 L 426.00,51.82 L 432.00,49.57 L 438.00,44.81 L 444.00,40.36 L 450.00,38.76 L 456.00,40.91 L 462.00,45.65 L 468.00,50.33 L 474.00,52.20 L 480.00,49.83 L 486.00,43.89 L 492.00,36.77 L 498.00,31.40 L 504.00,29.72 L 510.00,31.70" fill="none" stroke="white" stroke-opacity="0.25" stroke-width="3"/>
<path d="M 0.00,35.31 L 6.00,41.35 L 12.00,48.50 L 18.00,55.40 L 24.00,60.71 L 30.00,63.47 L 36.00,63.38 L 42.00,60.90 L 48.00,57.08 L 54.00,53.14 L 60.00,50.12 L 66.00,48.53 L 72.00,48.17 L 78.00,48.28 L 84.00,47.81 L 90.00,45.82 L 96.00,41.89 L 102.00,36.24 L 108.00,29.80 L 114.00,23.87 L 120.00,19.76 L 126.00,18.38 L 132.00,19.94 L 138.00,23.92 L 144.00,29.20 L 150.00,34.49 L 156.00,38.67 L 162.00,41.19 L 168.00,42.20 L 174.00,42.43 L 180.00,42.91 L 186.00,44.57 L 192.00,47.87 L 198.00,52.60 L 204.00,57.88 L 210.00,62.47 L 216.00,65.13 L 222.00,65.01 L 228.00,61.97 L 234.00,56.61 L 240.00,50.12 L 246.00,43.85 L 252.00,38.95 L 258.00,36.02 L 264.00,34.93 L 270.00,34.95 L 276.00,35.04 L 282.00,34.24 L 288.00,32.04 L 294.00,28.62 L 300.00,24.77 L 306.00,21.68 L 312.00,20.51 L 318.00,22.04 L 324.00,26.33 L 330.00,32.73 L 336.00,40.00 L 342.00,46.75 L 348.00,51.80 L 354.00,54.56 L 360.00,55.15 L 366.00,54.33 L 372.00,53.18 L 378.00,52.72 L 384.00,53.50 L 390.00,55.43 L 396.00,57.78 L 402.00,59.45 L 408.00,59.32 L 414.00,56.70 L 420.00,51.57 L 426.00,44.63 L 432.00,37.12 L 438.00,30.47 L 444.00,25.85 L 450.00,23.83 L 456.00,24.25 L 462.00,26.29 L 468.00,28.82 L 474.00,30.77 L 480.00,31.49 L 486.00,31.01 L 492.00,29.98 L 498.00,29.46 L 504.00,30.49 L 510.00,33.72" fill="none" stroke="white" stroke-opacity="0.25" stroke-width="3"/>
<path d="M 0.00,41.17 L 6.00,46.09 L 12.00,51.90 L 18.00,57.55 L 24.00,62.01 L 30.00,64.50 L 36.00,64.67 L 42.00,62.65 L 48.00,58.99 L 54.00,54.57 L 60.00,50.30 L 66.00,46.97 L 72.00,45.05 L 78.00,44.56 L 84.00,45.20 L 90.00,46.36 L 96.00,47.39 L 102.00,47.77 L 108.00,47.28 L 114.00,46.03 L 120.00,44.50 L 126.00,43.34 L 132.00,43.21 L 138.00,44.56 L 144.00,47.51 L 150.00,51.74 L 156.00,56.55 L 162.00,61.02 L 168.00,64.20 L 174.00,65.35 L 180.00,64.12 L 186.00,60.66 L 192.00,55.56 L 198.00,49.78 L 204.00,44.36 L 210.00,40.27 L 216.00,38.11 L 222.00,38.08 L 228.00,39.89 L 234.00,42.90 L 240.00,46.28 L 246.00,49.25 L 252.00,51.26 L 258.00,52.11 L 264.00,51.98 L 270.00,51.37 L 276.00,50.89 L 282.00,51.09 L 288.00,52.26 L 294.00,54.36 L 300.00,56.98 L 306.00,59.42 L 312.00,60.92 L 318.00,60.83 L 324.00,58.82 L 330.00,54.98 L 336.00,49.85 L 342.00,44.32 L 348.00,39.41 L 354.00,36.09 L 360.00,34.99 L 366.00,36.32 L 372.00,39.78 L 378.00,44.66 L 384.00,49.97 L 390.00,54.72 L 396.00,58.12 L 402.00,59.74 L 408.00,59.61 L 414.00,58.13 L 420.00,55.99 L 426.00,53.90 L 432.00,52.46 L 438.00,51.95 L 444.00,52.27 L 450.00,53.02 L 456.00,53.60 L 462.00,53.41 L 468.00,52.03 L 474.00,49.40 L 480.00,45.85 L 486.00,42.06 L 492.00,38.87 L 498.00,37.12 L 504.00,37.39 L 510.00,39.89" fill="none" stroke="white" stroke-opacity="0.25" stroke-width="3"/>
<path d="M 0.00,49.09 L 6.00,53.49 L 12.00,59.88 L 18.00,65.64 L 24.00,68.53 L 30.00,68.04 L 36.00,65.60 L 42.00,63.69 L 48.00,64.21 L 54.00,67.31 L 60.00,71.21 L 66.00,73.37 L 72.00,72.03 L 78.00,67.32 L 84.00,61.24 L 90.00,56.44 L 96.00,54.65 L 102.00,55.64 L 108.00,57.45 L 114.00,57.66 L 120.00,54.97 L 126.00,50.05 L 132.00,45.17 L 138.00,42.84 L 144.00,44.29 L 150.00,48.66 L 156.00,53.62 L 162.00,56.71 L 168.00,56.90 L 174.00,55.15 L 180.00,53.78 L 186.00,54.97 L 192.00,59.33 L 198.00,65.45 L 204.00,70.75 L 210.00,72.98 L 216.00,71.58 L 222.00,68.01 L 228.00,64.77 L 234.00,63.89 L 240.00,65.61 L 246.00,68.29 L 252.00,69.44 L 258.00,67.30 L 264.00,61.99 L 270.00,55.51 L 276.00,50.52 L 282.00,48.80 L 288.00,50.18 L 294.00,52.73 L 300.00,53.96 L 306.00,52.49 L 312.00,48.87 L 318.00,45.26 L 324.00,44.16 L 330.00,46.74 L 336.00,52.20 L 342.00,58.13 L 348.00,62.03 L 354.00,62.77 L 360.00,61.24 L 366.00,59.71 L 372.00,60.41 L 378.00,64.02 L 384.00,69.23 L 390.00,73.50 L 396.00,74.60 L 402.00,71.99 L 408.00,67.12 L 414.00,62.56 L 420.00,60.42 L 426.00,61.08 L 432.00,62.98 L 438.00,63.68 L 444.00,61.41 L 450.00,56.22 L 456.00,50.06 L 462.00,45.60 L 468.00,44.62 L 474.00,46.99 L 480.00,50.74 L 486.00,53.35 L 492.00,53.29 L 498.00,50.99 L 504.00,48.55 L 510.00,48.38" fill="none" stroke="white" stroke-opacity="0.25" stroke-width="3"/>
<path d="M 0.00,69.78 L 6.00,68.54 L 12.00,69.55 L 18.00,71.53 L 24.00,72.56 L 30.00,71.15 L 36.00,67.08 L 42.00,61.50 L 48.00,56.45 L 54.00,53.79 L 60.00,54.31 L 66.00,57.33 L 72.00,61.06 L 78.00,63.59 L 84.00,63.80 L 90.00,62.02 L 96.00,59.75 L 102.00,58.92 L 108.00,60.84 L 114.00,65.43 L 120.00,71.30 L 126.00,76.35 L 132.00,78.85 L 138.00,78.28 L 144.00,75.57 L 150.00,72.57 L 156.00,71.11 L 162.00,71.97 L 168.00,74.55 L 174.00,77.14 L 180.00,77.84 L 186.00,75.57 L 192.00,70.65 L 198.00,64.72 L 204.00,59.88 L 210.00,57.68 L 216.00,58.35 L 222.00,60.75 L 228.00,62.96 L 234.00,63.35 L 240.00,61.40 L 246.00,58.04 L 252.00,55.13 L 258.00,54.49 L 264.00,56.99 L 270.00,62.01 L 276.00,67.77 L 282.00,72.20 L 288.00,73.96 L 294.00,73.11 L 300.00,71.00 L 306.00,69.56 L 312.00,70.24 L 318.00,73.21 L 324.00,77.29 L 330.00,80.51 L 336.00,81.12 L 342.00,78.52 L 348.00,73.59 L 354.00,68.23 L 360.00,64.42 L 366.00,63.24 L 372.00,64.35 L 378.00,66.21 L 384.00,66.92 L 390.00,65.25 L 396.00,61.35 L 402.00,56.66 L 408.00,53.21 L 414.00,52.60 L 420.00,55.18 L 426.00,59.85 L 432.00,64.62 L 438.00,67.63 L 444.00,68.10 L 450.00,66.65 L 456.00,64.98 L 462.00,64.92 L 468.00,67.45 L 474.00,72.13 L 480.00,77.30 L 486.00,80.90 L 492.00,81.48 L 498.00,79.00 L 504.00,74.75 L 510.00,70.74" fill="none" stroke="white" stroke-opacity="0.25" stroke-width="3"/>
<path d="M 0.00,81.88 L 6.00,84.60 L 12.00,87.25 L 18.00,90.02 L 24.00,92.48 L 30.00,93.77 L 36.00,92.98 L 42.00,89.62 L 48.00,84.00 L 54.00,77.15 L 60.00,70.47 L 66.00,65.20 L 72.00,61.93 L 78.00,60.52 L 84.00,60.31 L 90.00,60.58 L 96.00,61.00 L 102.00,61.83 L 108.00,63.72 L 114.00,67.28 L 120.00,72.66 L 126.00,79.27 L 132.00,85.91 L 138.00,91.17 L 144.00,94.06 L 150.00,94.27 L 156.00,92.33 L 162.00,89.20 L 168.00,85.83 L 174.00,82.69 L 180.00,79.67 L 186.00,76.25 L 192.00,71.98 L 198.00,66.89 L 204.00,61.66 L 210.00,57.44 L 216.00,55.40 L 222.00,56.18 L 228.00,59.64 L 234.00,64.87 L 240.00,70.59 L 246.00,75.73 L 252.00,79.75 L 258.00,82.83 L 264.00,85.48 L 270.00,88.17 L 276.00,90.91 L 282.00,93.09 L 288.00,93.78 L 294.00,92.15 L 300.00,87.96 L 306.00,81.78 L 312.00,74.83 L 318.00,68.51 L 324.00,63.88 L 330.00,61.28 L 336.00,60.36 L 342.00,60.37 L 348.00,60.70 L 354.00,61.21 L 360.00,62.31 L 366.00,64.70 L 372.00,68.89 L 378.00,74.78 L 384.00,81.55 L 390.00,87.88 L 396.00,92.43 L 402.00,94.41 L 408.00,93.82 L 414.00,91.36 L 420.00,88.06 L 426.00,84.75 L 432.00,81.69 L 438.00,78.60 L 444.00,74.94 L 450.00,70.36 L 456.00,65.11 L 462.00,60.08 L 468.00,56.47 L 474.00,55.34 L 480.00,57.07 L 486.00,61.25 L 492.00,66.78 L 498.00,72.41 L 504.00,77.20 L 510.00,80.86" fill="none" stroke="white" stroke-opacity="0.25" stroke-width="3"/>
<path d="M 0.00,95.66 L 6.00,89.95 L 12.00,84.26 L 18.00,79.86 L 24.00,77.07 L 30.00,75.45 L 36.00,74.44 L 42.00,73.87 L 48.00,74.22 L 54.00,76.30 L 60.00,80.67 L 66.00,87.02 L 72.00,93.96 L 78.00,99.37 L 84.00,101.23 L 90.00,98.48 L 96.00,91.65 L 102.00,82.69 L 108.00,74.31 L 114.00,68.92 L 120.00,67.78 L 126.00,70.62 L 132.00,75.93 L 138.00,81.81 L 144.00,86.72 L 150.00,90.03 L 156.00,91.97 L 162.00,93.14 L 168.00,93.88 L 174.00,93.92 L 180.00,92.51 L 186.00,88.91 L 192.00,83.12 L 198.00,76.16 L 204.00,69.99 L 210.00,66.77 L 216.00,67.96 L 222.00,73.58 L 228.00,82.12 L 234.00,91.00 L 240.00,97.59 L 246.00,100.19 L 252.00,98.57 L 258.00,93.86 L 264.00,87.97 L 270.00,82.62 L 276.00,78.76 L 282.00,76.43 L 288.00,75.07 L 294.00,74.19 L 300.00,73.84 L 306.00,74.68 L 312.00,77.49 L 318.00,82.62 L 324.00,89.37 L 330.00,96.05 L 336.00,100.46 L 342.00,100.83 L 348.00,96.59 L 354.00,88.77 L 360.00,79.70 L 366.00,72.09 L 372.00,68.05 L 378.00,68.34 L 384.00,72.21 L 390.00,77.92 L 396.00,83.61 L 402.00,88.00 L 408.00,90.80 L 414.00,92.42 L 420.00,93.43 L 426.00,94.00 L 432.00,93.65 L 438.00,91.57 L 444.00,87.20 L 450.00,80.85 L 456.00,73.91 L 462.00,68.50 L 468.00,66.64 L 474.00,69.39 L 480.00,76.22 L 486.00,85.18 L 492.00,93.56 L 498.00,98.95 L 504.00,100.09 L 510.00,97.25" fill="none" stroke="white" stroke-opacity="0.25" stroke-width="3"/>
<path d="M 0.00,81.56 L 6.00,81.90 L 12.00,82.26 L 18.00,82.24 L 24.00,81.63 L 30.00,80.42 L 36.00,78.84 L 42.00,77.29 L 48.00,76.24 L 54.00,76.09 L 60.00,77.09 L 66.00,79.27 L 72.00,82.38 L 78.00,86.01 L 84.00,89.64 L 90.00,92.81 L 96.00,95.18 L 102.00,96.65 L 108.00,97.34 L 114.00,97.58 L 120.00,97.79 L 126.00,98.38 L 132.00,99.61 L 138.00,101.53 L 144.00,103.96 L 150.00,106.51 L 156.00,108.71 L 162.00,110.09 L 168.00,110.34 L 174.00,109.35 L 180.00,107.27 L 186.00,104.44 L 192.00,101.36 L 198.00,98.50 L 204.00,96.24 L 210.00,94.75 L 216.00,93.95 L 222.00,93.57 L 228.00,93.20 L 234.00,92.43 L 240.00,90.94 L 246.00,88.64 L 252.00,85.65 L 258.00,82.31 L 264.00,79.11 L 270.00,76.55 L 276.00,75.02 L 282.00,74.70 L 288.00,75.55 L 294.00,77.28 L 300.00,79.47 L 306.00,81.61 L 312.00,83.33 L 318.00,84.41 L 324.00,84.86 L 330.00,84.92 L 336.00,84.97 L 342.00,85.46 L 348.00,86.72 L 354.00,88.94 L 360.00,92.05 L 366.00,95.74 L 372.00,99.57 L 378.00,103.01 L 384.00,105.61 L 390.00,107.10 L 396.00,107.45 L 402.00,106.86 L 408.00,105.71 L 414.00,104.46 L 420.00,103.52 L 426.00,103.15 L 432.00,103.38 L 438.00,104.01 L 444.00,104.67 L 450.00,104.92 L 456.00,104.35 L 462.00,102.72 L 468.00,100.03 L 474.00,96.50 L 480.00,92.56 L 486.00,88.73 L 492.00,85.48 L 498.00,83.16 L 504.00,81.88 L 510.00,81.53" fill="none" stroke="white" stroke-opacity="0.25" stroke-width="3"/>
<path d="M 0.00,96.36 L 6.00,89.97 L 12.00,85.90 L 18.00,85.70 L 24.00,89.64 L 30.00,96.56 L 36.00,104.26 L 42.00,110.43 L 48.00,113.48 L 54.00,113.07 L 60.00,110.04 L 66.00,105.88 L 72.00,101.94 L 78.00,98.91 L 84.00,96.71 L 90.00,94.84 L 96.00,92.98 L 102.00,91.39 L 108.00,90.89 L 114.00,92.47 L 120.00,96.61 L 126.00,102.81 L 132.00,109.50 L 138.00,114.56 L 144.00,116.15 L 150.00,113.53 L 156.00,107.40 L 162.00,99.69 L 168.00,92.77 L 174.00,88.58 L 180.00,87.89 L 186.00,90.19 L 192.00,94.14 L 198.00,98.27 L 204.00,101.63 L 210.00,104.07 L 216.00,105.99 L 222.00,107.84 L 228.00,109.59 L 234.00,110.57 L 240.00,109.78 L 246.00,106.49 L 252.00,100.85 L 258.00,94.10 L 264.00,88.26 L 270.00,85.36 L 276.00,86.59 L 282.00,91.71 L 288.00,99.16 L 294.00,106.59 L 300.00,111.84 L 306.00,113.71 L 312.00,112.28 L 318.00,108.70 L 324.00,104.49 L 330.00,100.82 L 336.00,98.11 L 342.00,96.07 L 348.00,94.22 L 354.00,92.39 L 360.00,91.05 L 366.00,91.14 L 372.00,93.56 L 378.00,98.51 L 384.00,105.09 L 390.00,111.47 L 396.00,115.54 L 402.00,115.74 L 408.00,111.80 L 414.00,104.89 L 420.00,97.18 L 426.00,91.01 L 432.00,87.96 L 438.00,88.38 L 444.00,91.40 L 450.00,95.56 L 456.00,99.50 L 462.00,102.53 L 468.00,104.74 L 474.00,106.60 L 480.00,108.46 L 486.00,110.05 L 492.00,110.56 L 498.00,108.98 L 504.00,104.83 L 510.00,98.63" fill="none" stroke="white" stroke-opacity="0.25" stroke-width="3"/>
<path d="M 0.00,120.07 L 6.00,115.79 L 12.00,113.19 L 18.00,114.11 L 24.00,117.65 L 30.00,120.83 L 36.00,120.44 L 42.00,115.18 L 48.00,106.58 L 54.00,98.22 L 60.00,93.64 L 66.00,94.27 L 72.00,98.72 L 78.00,103.67 L 84.00,106.00 L 90.00,104.75 L 96.00,101.64 L 102.00,99.95 L 108.00,102.35 L 114.00,109.12 L 120.00,117.79 L 126.00,124.56 L 132.00,126.52 L 138.00,123.31 L 144.00,117.32 L 150.00,112.12 L 156.00,110.31 L 162.00,111.91 L 168.00,114.48 L 174.00,114.74 L 180.00,110.75 L 186.00,103.28 L 192.00,95.48 L 198.00,91.03 L 204.00,91.98 L 210.00,97.53 L 216.00,104.54 L 222.00,109.46 L 228.00,110.45 L 234.00,108.46 L 240.00,106.44 L 246.00,107.42 L 252.00,112.44 L 258.00,119.78 L 264.00,125.90 L 270.00,127.55 L 276.00,123.75 L 282.00,116.38 L 288.00,109.06 L 294.00,105.00 L 300.00,105.09 L 306.00,107.52 L 312.00,109.03 L 318.00,107.10 L 324.00,101.65 L 330.00,95.19 L 336.00,91.35 L 342.00,92.65 L 348.00,98.92 L 354.00,107.36 L 360.00,114.19 L 366.00,116.85 L 372.00,115.46 L 378.00,112.59 L 384.00,111.52 L 390.00,114.07 L 396.00,119.37 L 402.00,124.34 L 408.00,125.59 L 414.00,121.55 L 420.00,113.48 L 426.00,104.87 L 432.00,99.33 L 438.00,98.52 L 444.00,101.30 L 450.00,104.55 L 456.00,105.23 L 462.00,102.37 L 468.00,97.70 L 474.00,94.60 L 480.00,95.95 L 486.00,102.25 L 492.00,111.22 L 498.00,119.04 L 504.00,122.61 L 510.00,121.29" fill="none" stroke="white" stroke-opacity="0.25" stroke-width="3"/>
<path d="M 0.00,110.08 L 6.00,105.37 L 12.00,102.29 L 18.00,101.37 L 24.00,102.50 L 30.00,104.91 L 36.00,107.51 L 42.00,109.23 L 48.00,109.37 L 54.00,107.89 L 60.00,105.36 L 66.00,102.81 L 72.00,101.36 L 78.00,101.86 L 84.00,104.55 L 90.00,109.03 L 96.00,114.32 L 102.00,119.24 L 108.00,122.75 L 114.00,124.30 L 120.00,124.02 L 126.00,122.64 L 132.00,121.23 L 138.00,120.84 L 144.00,122.13 L 150.00,125.12 L 156.00,129.21 L 162.00,133.32 L 168.00,136.30 L 174.00,137.29 L 180.00,135.98 L 186.00,132.78 L 192.00,128.61 L 198.00,124.65 L 204.00,121.90 L 210.00,120.90 L 216.00,121.52 L 222.00,123.00 L 228.00,124.29 L 234.00,124.33 L 240.00,122.47 L 246.00,118.69 L 252.00,113.64 L 258.00,108.39 L 264.00,104.12 L 270.00,101.73 L 276.00,101.55 L 282.00,103.21 L 288.00,105.81 L 294.00,108.23 L 300.00,109.47 L 306.00,109.04 L 312.00,107.12 L 318.00,104.45 L 324.00,102.15 L 330.00,101.29 L 336.00,102.52 L 342.00,105.89 L 348.00,110.76 L 354.00,116.06 L 360.00,120.61 L 366.00,123.49 L 372.00,124.39 L 378.00,123.64 L 384.00,122.12 L 390.00,120.94 L 396.00,121.07 L 402.00,122.95 L 408.00,126.41 L 414.00,130.63 L 420.00,134.49 L 426.00,136.88 L 432.00,137.10 L 438.00,135.09 L 444.00,131.44 L 450.00,127.21 L 456.00,123.56 L 462.00,121.37 L 468.00,120.95 L 474.00,121.96 L 480.00,123.51 L 486.00,124.48 L 492.00,123.93 L 498.00,121.40 L 504.00,117.10 L 510.00,111.85" fill="none" stroke="white" stroke-opacity="0.25" stroke-width="3"/>
<path d="M 0.00,110.17 L 6.00,109.75 L 12.00,112.14 L 18.00,115.69 L 24.00,118.40 L 30.00,119.15 L 36.00,118.34 L 42.00,117.63 L 48.00,118.84 L 54.00,122.75 L 60.00,128.55 L 66.00,134.26 L 72.00,137.87 L 78.00,138.54 L 84.00,137.02 L 90.00,135.17 L 96.00,134.70 L 102.00,136.15 L 108.00,138.49 L 114.00,139.79 L 120.00,138.44 L 126.00,134.17 L 132.00,128.31 L 138.00,122.99 L 144.00,119.91 L 150.00,119.35 L 156.00,120.10 L 162.00,120.25 L 168.00,118.50 L 174.00,114.94 L 180.00,111.15 L 186.00,109.16 L 192.00,110.25 L 198.00,114.15 L 204.00,119.17 L 210.00,123.23 L 216.00,125.09 L 222.00,125.08 L 228.00,124.79 L 234.00,126.02 L 240.00,129.60 L 246.00,134.78 L 252.00,139.61 L 258.00,142.13 L 264.00,141.50 L 270.00,138.50 L 276.00,135.03 L 282.00,132.92 L 288.00,132.82 L 294.00,133.81 L 300.00,134.05 L 306.00,131.95 L 312.00,127.24 L 318.00,121.23 L 324.00,116.03 L 330.00,113.39 L 336.00,113.61 L 342.00,115.46 L 348.00,117.01 L 354.00,116.81 L 360.00,114.89 L 366.00,112.67 L 372.00,112.12 L 378.00,114.50 L 384.00,119.51 L 390.00,125.43 L 396.00,130.14 L 402.00,132.33 L 408.00,132.26 L 414.00,131.50 L 420.00,131.89 L 426.00,134.35 L 432.00,138.20 L 438.00,141.60 L 444.00,142.64 L 450.00,140.50 L 456.00,136.00 L 462.00,131.09 L 468.00,127.69 L 474.00,126.56 L 480.00,126.88 L 486.00,126.84 L 492.00,124.84 L 498.00,120.57 L 504.00,115.27 L 510.00,111.02" fill="none" stroke="white" stroke-opacity="0.25" stroke-width="3"/>
<path d="M 0.00,131.75 L 6.00,130.92 L 12.00,129.03 L 18.00,128.66 L 24.00,131.80 L 30.00,138.25 L 36.00,145.42 L 42.00,149.67 L 48.00,148.39 L 54.00,141.65 L 60.00,132.27 L 66.00,124.34 L 72.00,121.01 L 78.00,122.89 L 84.00,127.92 L 90.00,132.85 L 96.00,135.28 L 102.00,134.99 L 108.00,133.88 L 114.00,134.42 L 120.00,137.79 L 126.00,142.85 L 132.00,146.69 L 138.00,146.34 L 144.00,140.79 L 150.00,131.79 L 156.00,123.16 L 162.00,118.67 L 168.00,120.10 L 174.00,126.24 L 180.00,133.77 L 186.00,139.19 L 192.00,140.78 L 198.00,139.35 L 204.00,137.39 L 210.00,137.22 L 216.00,139.34 L 222.00,142.03 L 228.00,142.51 L 234.00,138.88 L 240.00,131.60 L 246.00,123.53 L 252.00,118.53 L 258.00,119.22 L 264.00,125.48 L 270.00,134.47 L 276.00,142.17 L 282.00,145.59 L 288.00,144.28 L 294.00,140.30 L 300.00,136.67 L 306.00,135.43 L 312.00,136.37 L 318.00,137.40 L 324.00,136.09 L 330.00,131.55 L 336.00,125.29 L 342.00,120.57 L 348.00,120.45 L 354.00,125.89 L 360.00,134.99 L 366.00,143.87 L 372.00,148.75 L 378.00,147.95 L 384.00,142.70 L 390.00,136.21 L 396.00,131.69 L 402.00,130.54 L 408.00,131.71 L 414.00,132.72 L 420.00,131.54 L 426.00,128.08 L 432.00,124.47 L 438.00,123.66 L 444.00,127.54 L 450.00,135.41 L 456.00,144.18 L 462.00,149.85 L 468.00,149.79 L 474.00,144.17 L 480.00,135.82 L 486.00,128.63 L 492.00,125.35 L 498.00,126.23 L 504.00,129.22 L 510.00,131.49" fill="none" stroke="white" stroke-opacity="0.25" stroke-width="3"/>
<path d="M 0.00,151.52 L 6.00,148.48 L 12.00,145.53 L 18.00,142.28 L 24.00,138.29 L 30.00,133.61 L 36.00,129.08 L 42.00,126.18 L 48.00,126.48 L 54.00,130.95 L 60.00,139.29 L 66.00,149.78 L 72.00,159.65 L 78.00,165.95 L 84.00,166.52 L 90.00,160.86 L 96.00,150.36 L 102.00,137.90 L 108.00,126.96 L 114.00,120.46 L 120.00,119.87 L 126.00,124.83 L 132.00,133.43 L 138.00,142.96 L 144.00,150.88 L 150.00,155.65 L 156.00,156.98 L 162.00,155.64 L 168.00,152.89 L 174.00,149.81 L 180.00,146.85 L 186.00,143.79 L 192.00,140.16 L 198.00,135.74 L 204.00,130.99 L 210.00,127.16 L 216.00,125.87 L 222.00,128.44 L 228.00,135.18 L 234.00,145.01 L 240.00,155.54 L 246.00,163.76 L 252.00,167.05 L 258.00,164.10 L 264.00,155.47 L 270.00,143.46 L 276.00,131.42 L 282.00,122.66 L 288.00,119.38 L 294.00,122.03 L 300.00,129.33 L 306.00,138.78 L 312.00,147.69 L 318.00,153.97 L 324.00,156.78 L 330.00,156.48 L 336.00,154.21 L 342.00,151.18 L 348.00,148.15 L 354.00,145.19 L 360.00,141.87 L 366.00,137.79 L 372.00,133.08 L 378.00,128.65 L 384.00,126.03 L 390.00,126.77 L 396.00,131.71 L 402.00,140.39 L 408.00,150.96 L 414.00,160.58 L 420.00,166.32 L 426.00,166.19 L 432.00,159.89 L 438.00,149.01 L 444.00,136.55 L 450.00,125.98 L 456.00,120.09 L 462.00,120.17 L 468.00,125.66 L 474.00,134.49 L 480.00,143.95 L 486.00,151.58 L 492.00,155.96 L 498.00,156.94 L 504.00,155.38 L 510.00,152.55" fill="none" stroke="white" stroke-opacity="0.25" stroke-width="3"/>
<path d="M 0.00,146.42 L 6.00,140.72 L 12.00,136.90 L 18.00,136.94 L 24.00,140.95 L 30.00,147.19 L 36.00,152.87 L 42.00,155.65 L 48.00,154.77 L 54.00,151.43 L 60.00,148.13 L 66.00,147.36 L 72.00,150.21 L 78.00,155.85 L 84.00,161.88 L 90.00,165.54 L 96.00,165.17 L 102.00,161.01 L 108.00,155.10 L 114.00,150.22 L 120.00,148.47 L 126.00,150.19 L 132.00,153.83 L 138.00,156.76 L 144.00,156.69 L 150.00,152.90 L 156.00,146.61 L 162.00,140.44 L 168.00,137.03 L 174.00,137.74 L 180.00,141.94 L 186.00,147.36 L 192.00,151.28 L 198.00,151.90 L 204.00,149.31 L 210.00,145.39 L 216.00,142.80 L 222.00,143.62 L 228.00,148.19 L 234.00,154.91 L 240.00,161.04 L 246.00,164.08 L 252.00,163.02 L 258.00,158.86 L 264.00,154.05 L 270.00,151.20 L 276.00,151.76 L 282.00,155.23 L 288.00,159.43 L 294.00,161.70 L 300.00,160.22 L 306.00,155.06 L 312.00,148.13 L 318.00,142.24 L 324.00,139.71 L 330.00,141.14 L 336.00,145.20 L 342.00,149.31 L 348.00,151.02 L 354.00,149.26 L 360.00,144.96 L 366.00,140.51 L 372.00,138.55 L 378.00,140.58 L 384.00,146.14 L 390.00,153.05 L 396.00,158.47 L 402.00,160.38 L 408.00,158.54 L 414.00,154.62 L 420.00,151.26 L 426.00,150.71 L 432.00,153.62 L 438.00,158.68 L 444.00,163.32 L 450.00,164.98 L 456.00,162.51 L 462.00,156.75 L 468.00,150.10 L 474.00,145.33 L 480.00,144.17 L 486.00,146.46 L 492.00,150.23 L 498.00,152.82 L 504.00,152.24 L 510.00,148.25" fill="none" stroke="white" stroke-opacity="0.25" stroke-width="3"/>
<path d="M 0.00,174.17 L 6.00,175.00 L 12.00,173.97 L 18.00,172.22 L 24.00,171.18 L 30.00,171.64 L 36.00,173.28 L 42.00,174.83 L 48.00,174.93 L 54.00,172.93 L 60.00,169.30 L 66.00,165.41 L 72.00,162.65 L 78.00,161.60 L 84.00,161.71 L 90.00,161.64 L 96.00,160.15 L 102.00,156.88 L 108.00,152.61 L 114.00,148.77 L 120.00,146.65 L 126.00,146.54 L 132.00,147.63 L 138.00,148.51 L 144.00,148.07 L 150.00,146.17 L 156.00,143.80 L 162.00,142.40 L 168.00,143.01 L 174.00,145.61 L 180.00,149.11 L 186.00,152.05 L 192.00,153.44 L 198.00,153.42 L 204.00,153.08 L 210.00,153.83 L 216.00,156.45 L 222.00,160.59 L 228.00,164.97 L 234.00,168.15 L 240.00,169.37 L 246.00,169.02 L 252.00,168.37 L 258.00,168.75 L 264.00,170.71 L 270.00,173.66 L 276.00,176.22 L 282.00,177.08 L 288.00,175.78 L 294.00,173.03 L 300.00,170.24 L 306.00,168.67 L 312.00,168.64 L 318.00,169.38 L 324.00,169.48 L 330.00,167.81 L 336.00,164.26 L 342.00,159.80 L 348.00,155.92 L 354.00,153.75 L 360.00,153.34 L 366.00,153.72 L 372.00,153.47 L 378.00,151.66 L 384.00,148.44 L 390.00,144.98 L 396.00,142.75 L 402.00,142.61 L 408.00,144.32 L 414.00,146.68 L 420.00,148.25 L 426.00,148.30 L 432.00,147.21 L 438.00,146.25 L 444.00,146.76 L 450.00,149.33 L 456.00,153.39 L 462.00,157.54 L 468.00,160.41 L 474.00,161.49 L 480.00,161.40 L 486.00,161.47 L 492.00,162.92 L 498.00,166.05 L 504.00,170.04 L 510.00,173.42" fill="none" stroke="white" stroke-opacity="0.25" stroke-width="3"/>
<path d="M 0.00,171.93 L 6.00,172.06 L 12.00,174.28 L 18.00,176.94 L 24.00,178.16 L 30.00,176.59 L 36.00,172.06 L 42.00,165.61 L 48.00,159.10 L 54.00,154.45 L 60.00,152.82 L 66.00,154.16 L 72.00,157.23 L 78.00,160.14 L 84.00,161.18 L 90.00,159.54 L 96.00,155.66 L 102.00,151.05 L 108.00,147.67 L 114.00,147.08 L 120.00,149.77 L 126.00,154.98 L 132.00,160.99 L 138.00,165.84 L 144.00,168.14 L 150.00,167.68 L 156.00,165.44 L 162.00,163.22 L 168.00,162.82 L 174.00,165.29 L 180.00,170.42 L 186.00,176.87 L 192.00,182.67 L 198.00,186.07 L 204.00,186.23 L 210.00,183.62 L 216.00,179.74 L 222.00,176.53 L 228.00,175.52 L 234.00,177.18 L 240.00,180.72 L 246.00,184.43 L 252.00,186.41 L 258.00,185.37 L 264.00,181.20 L 270.00,175.03 L 276.00,168.73 L 282.00,164.20 L 288.00,162.51 L 294.00,163.53 L 300.00,165.94 L 306.00,167.88 L 312.00,167.68 L 318.00,164.65 L 324.00,159.35 L 330.00,153.37 L 336.00,148.70 L 342.00,146.86 L 348.00,148.31 L 354.00,152.21 L 360.00,156.84 L 366.00,160.26 L 372.00,161.22 L 378.00,159.58 L 384.00,156.46 L 390.00,153.70 L 396.00,153.07 L 402.00,155.55 L 408.00,160.85 L 414.00,167.54 L 420.00,173.65 L 426.00,177.46 L 432.00,178.22 L 438.00,176.45 L 444.00,173.71 L 450.00,171.90 L 456.00,172.45 L 462.00,175.73 L 468.00,180.82 L 474.00,185.94 L 480.00,189.18 L 486.00,189.29 L 492.00,186.23 L 498.00,181.16 L 504.00,175.98 L 510.00,172.51" fill="none" stroke="white" stroke-opacity="0.25" stroke-width="3"/>
<path d="M 0.00,173.23 L 6.00,174.92 L 12.00,175.48 L 18.00,176.13 L 24.00,178.10 L 30.00,181.70 L 36.00,185.91 L 42.00,188.71 L 48.00,188.15 L 54.00,183.41 L 60.00,175.46 L 66.00,166.84 L 72.00,160.64 L 78.00,159.18 L 84.00,162.96 L 90.00,170.46 L 96.00,178.84 L 102.00,185.22 L 108.00,187.87 L 114.00,186.84 L 120.00,183.61 L 126.00,180.20 L 132.00,178.00 L 138.00,177.17 L 144.00,176.71 L 150.00,175.27 L 156.00,172.17 L 162.00,167.97 L 168.00,164.46 L 174.00,163.73 L 180.00,167.09 L 186.00,174.19 L 192.00,182.94 L 198.00,190.26 L 204.00,193.46 L 210.00,191.35 L 216.00,184.82 L 222.00,176.39 L 228.00,169.07 L 234.00,165.09 L 240.00,165.00 L 246.00,167.72 L 252.00,171.28 L 258.00,173.97 L 264.00,175.19 L 270.00,175.62 L 276.00,176.60 L 282.00,179.14 L 288.00,183.12 L 294.00,187.11 L 300.00,188.97 L 306.00,187.02 L 312.00,181.01 L 318.00,172.50 L 324.00,164.36 L 330.00,159.56 L 336.00,159.90 L 342.00,165.17 L 348.00,173.31 L 354.00,181.30 L 360.00,186.55 L 366.00,187.89 L 372.00,185.91 L 378.00,182.40 L 384.00,179.29 L 390.00,177.60 L 396.00,177.04 L 402.00,176.39 L 408.00,174.43 L 414.00,170.82 L 420.00,166.62 L 426.00,163.81 L 432.00,164.37 L 438.00,169.12 L 444.00,177.07 L 450.00,185.69 L 456.00,191.88 L 462.00,193.34 L 468.00,189.57 L 474.00,182.07 L 480.00,173.69 L 486.00,167.31 L 492.00,164.65 L 498.00,165.69 L 504.00,168.91 L 510.00,172.33" fill="none" stroke="white" stroke-opacity="0.25" stroke-width="3"/>
<path d="M 0.00,200.52 L 6.00,201.15 L 12.00,200.30 L 18.00,198.60 L 24.00,196.72 L 30.00,195.22 L 36.00,194.26 L 42.00,193.67 L 48.00,192.95 L 54.00,191.51 L 60.00,188.90 L 66.00,185.01 L 72.00,180.16 L 78.00,175.03 L 84.00,170.47 L 90.00,167.29 L 96.00,165.99 L 102.00,166.62 L 108.00,168.80 L 114.00,171.86 L 120.00,175.02 L 126.00,177.70 L 132.00,179.65 L 138.00,181.02 L 144.00,182.26 L 150.00,183.92 L 156.00,186.46 L 162.00,189.99 L 168.00,194.19 L 174.00,198.44 L 180.00,201.91 L 186.00,203.85 L 192.00,203.83 L 198.00,201.85 L 204.00,198.36 L 210.00,194.10 L 216.00,189.89 L 222.00,186.38 L 228.00,183.85 L 234.00,182.20 L 240.00,180.96 L 246.00,179.59 L 252.00,177.64 L 258.00,174.95 L 264.00,171.79 L 270.00,168.75 L 276.00,166.59 L 282.00,166.00 L 288.00,167.35 L 294.00,170.56 L 300.00,175.14 L 306.00,180.28 L 312.00,185.12 L 318.00,188.99 L 324.00,191.58 L 330.00,193.00 L 336.00,193.71 L 342.00,194.30 L 348.00,195.25 L 354.00,196.76 L 360.00,198.63 L 366.00,200.32 L 372.00,201.14 L 378.00,200.47 L 384.00,198.00 L 390.00,193.86 L 396.00,188.59 L 402.00,183.03 L 408.00,178.06 L 414.00,174.36 L 420.00,172.23 L 426.00,171.54 L 432.00,171.78 L 438.00,172.34 L 444.00,172.66 L 450.00,172.49 L 456.00,171.97 L 462.00,171.56 L 468.00,171.90 L 474.00,173.55 L 480.00,176.76 L 486.00,181.39 L 492.00,186.85 L 498.00,192.31 L 504.00,196.88 L 510.00,199.91" fill="none" stroke="white" stroke-opacity="0.25" stroke-width="3"/>
<path d="M 0.00,186.89 L 6.00,187.64 L 12.00,188.01 L 18.00,187.98 L 24.00,187.70 L 30.00,187.40 L 36.00,187.35 L 42.00,187.79 L 48.00,188.83 L 54.00,190.48 L 60.00,192.56 L 66.00,194.81 L 72.00,196.93 L 78.00,198.61 L 84.00,199.69 L 90.00,200.11 L 96.00,199.98 L 102.00,199.51 L 108.00,198.98 L 114.00,198.65 L 120.00,198.67 L 126.00,199.09 L 132.00,199.79 L 138.00,200.56 L 144.00,201.11 L 150.00,201.19 L 156.00,200.62 L 162.00,199.36 L 168.00,197.54 L 174.00,195.39 L 180.00,193.21 L 186.00,191.32 L 192.00,189.92 L 198.00,189.11 L 204.00,188.82 L 210.00,188.89 L 216.00,189.04 L 222.00,189.02 L 228.00,188.64 L 234.00,187.83 L 240.00,186.68 L 246.00,185.40 L 252.00,184.25 L 258.00,183.53 L 264.00,183.45 L 270.00,184.10 L 276.00,185.41 L 282.00,187.19 L 288.00,189.13 L 294.00,190.95 L 300.00,192.40 L 306.00,193.34 L 312.00,193.80 L 318.00,193.93 L 324.00,193.96 L 330.00,194.16 L 336.00,194.74 L 342.00,195.80 L 348.00,197.28 L 354.00,199.01 L 360.00,200.72 L 366.00,202.09 L 372.00,202.87 L 378.00,202.94 L 384.00,202.30 L 390.00,201.10 L 396.00,199.60 L 402.00,198.10 L 408.00,196.86 L 414.00,196.04 L 420.00,195.66 L 426.00,195.60 L 432.00,195.63 L 438.00,195.49 L 444.00,194.94 L 450.00,193.86 L 456.00,192.25 L 462.00,190.27 L 468.00,188.17 L 474.00,186.28 L 480.00,184.86 L 486.00,184.10 L 492.00,184.05 L 498.00,184.61 L 504.00,185.54 L 510.00,186.57" fill="none" stroke="white" stroke-opacity="0.25" stroke-width="3"/>
<path d="M 0.00,207.24 L 6.00,205.45 L 12.00,203.41 L 18.00,201.50 L 24.00,199.90 L 30.00,198.62 L 36.00,197.61 L 42.00,196.85 L 48.00,196.44 L 54.00,196.59 L 60.00,197.54 L 66.00,199.43 L 72.00,202.13 L 78.00,205.23 L 84.00,208.07 L 90.00,209.87 L 96.00,209.97 L 102.00,208.07 L 108.00,204.38 L 114.00,199.62 L 120.00,194.89 L 126.00,191.39 L 132.00,190.09 L 138.00,191.46 L 144.00,195.28 L 150.00,200.68 L 156.00,206.36 L 162.00,210.91 L 168.00,213.22 L 174.00,212.72 L 180.00,209.60 L 186.00,204.68 L 192.00,199.22 L 198.00,194.54 L 204.00,191.71 L 210.00,191.26 L 216.00,193.08 L 222.00,196.53 L 228.00,200.65 L 234.00,204.44 L 240.00,207.12 L 246.00,208.31 L 252.00,208.05 L 258.00,206.70 L 264.00,204.78 L 270.00,202.75 L 276.00,200.93 L 282.00,199.44 L 288.00,198.25 L 294.00,197.32 L 300.00,196.66 L 306.00,196.41 L 312.00,196.81 L 318.00,198.07 L 324.00,200.25 L 330.00,203.15 L 336.00,206.25 L 342.00,208.82 L 348.00,210.11 L 354.00,209.56 L 360.00,207.02 L 366.00,202.86 L 372.00,197.98 L 378.00,193.53 L 384.00,190.67 L 390.00,190.25 L 396.00,192.49 L 402.00,196.96 L 408.00,202.61 L 414.00,208.07 L 420.00,211.97 L 426.00,213.37 L 432.00,211.95 L 438.00,208.11 L 444.00,202.86 L 450.00,197.51 L 456.00,193.36 L 462.00,191.29 L 468.00,191.63 L 474.00,194.09 L 480.00,197.88 L 486.00,202.00 L 492.00,205.48 L 498.00,207.69 L 504.00,208.37 L 510.00,207.70" fill="none" stroke="white" stroke-opacity="0.25" stroke-width="3"/>
<path d="M 0.00,192.29 L 6.00,195.59 L 12.00,200.82 L 18.00,206.56 L 24.00,211.96 L 30.00,216.72 L 36.00,220.78 L 42.00,223.90 L 48.00,225.42 L 54.00,224.41 L 60.00,220.19 L 66.00,212.92 L 72.00,203.87 L 78.00,195.29 L 84.00,189.69 L 90.00,188.89 L 96.00,193.33 L 102.00,201.80 L 108.00,211.87 L 114.00,220.78 L 120.00,226.38 L 126.00,227.80 L 132.00,225.47 L 138.00,220.72 L 144.00,215.02 L 150.00,209.44 L 156.00,204.47 L 162.00,200.17 L 168.00,196.68 L 174.00,194.53 L 180.00,194.59 L 186.00,197.70 L 192.00,204.04 L 198.00,212.72 L 204.00,221.73 L 210.00,228.58 L 216.00,231.11 L 222.00,228.36 L 228.00,221.01 L 234.00,211.16 L 240.00,201.58 L 246.00,194.71 L 252.00,191.88 L 258.00,193.08 L 264.00,197.20 L 270.00,202.73 L 276.00,208.43 L 282.00,213.62 L 288.00,218.15 L 294.00,221.94 L 300.00,224.63 L 306.00,225.41 L 312.00,223.38 L 318.00,218.07 L 324.00,210.00 L 330.00,200.83 L 336.00,192.98 L 342.00,188.83 L 348.00,189.82 L 354.00,195.81 L 360.00,205.12 L 366.00,215.10 L 372.00,223.09 L 378.00,227.32 L 384.00,227.39 L 390.00,224.08 L 396.00,218.86 L 402.00,213.11 L 408.00,207.71 L 414.00,202.96 L 420.00,198.90 L 426.00,195.77 L 432.00,194.25 L 438.00,195.26 L 444.00,199.48 L 450.00,206.75 L 456.00,215.80 L 462.00,224.38 L 468.00,229.99 L 474.00,230.78 L 480.00,226.34 L 486.00,217.87 L 492.00,207.80 L 498.00,198.89 L 504.00,193.29 L 510.00,191.87" fill="none" stroke="white" stroke-opacity="0.25" stroke-width="3"/>
<path d="M 0.00,234.67 L 6.00,233.75 L 12.00,230.73 L 18.00,225.97 L 24.00,220.44 L 30.00,215.29 L 36.00,211.44 L 42.00,209.27 L 48.00,208.51 L 54.00,208.39 L 60.00,208.06 L 66.00,206.96 L 72.00,205.10 L 78.00,203.08 L 84.00,201.86 L 90.00,202.32 L 96.00,204.89 L 102.00,209.32 L 108.00,214.78 L 114.00,220.11 L 120.00,224.31 L 126.00,226.85 L 132.00,227.87 L 138.00,228.05 L 144.00,228.27 L 150.00,229.18 L 156.00,230.91 L 162.00,232.96 L 168.00,234.45 L 174.00,234.42 L 180.00,232.32 L 186.00,228.25 L 192.00,222.92 L 198.00,217.46 L 204.00,212.95 L 210.00,210.03 L 216.00,208.72 L 222.00,208.42 L 228.00,208.28 L 234.00,207.56 L 240.00,205.99 L 246.00,203.94 L 252.00,202.24 L 258.00,201.87 L 264.00,203.49 L 270.00,207.16 L 276.00,212.30 L 282.00,217.83 L 288.00,222.63 L 294.00,225.93 L 300.00,227.57 L 306.00,228.01 L 312.00,228.11 L 318.00,228.67 L 324.00,230.06 L 330.00,232.06 L 336.00,233.92 L 342.00,234.67 L 348.00,233.52 L 354.00,230.27 L 360.00,225.38 L 366.00,219.83 L 372.00,214.78 L 378.00,211.11 L 384.00,209.13 L 390.00,208.48 L 396.00,208.38 L 402.00,207.98 L 408.00,206.78 L 414.00,204.86 L 420.00,202.89 L 426.00,201.82 L 432.00,202.50 L 438.00,205.30 L 444.00,209.90 L 450.00,215.40 L 456.00,220.65 L 462.00,224.67 L 468.00,227.03 L 474.00,227.91 L 480.00,228.06 L 486.00,228.33 L 492.00,229.34 L 498.00,231.13 L 504.00,233.18 L 510.00,234.53" fill="none" stroke="white" stroke-opacity="0.25" stroke-width="3"/>
<path d="M 0.00,222.22 L 6.00,221.39 L 12.00,220.19 L 18.00,218.30 L 24.00,215.73 L 30.00,212.91 L 36.00,210.54 L 42.00,209.38 L 48.00,209.98 L 54.00,212.49 L 60.00,216.60 L 66.00,221.61 L 72.00,226.65 L 78.00,230.91 L 84.00,233.87 L 90.00,235.47 L 96.00,236.03 L 102.00,236.14 L 108.00,236.40 L 114.00,237.20 L 120.00,238.57 L 126.00,240.13 L 132.00,241.25 L 138.00,241.23 L 144.00,239.59 L 150.00,236.21 L 156.00,231.46 L 162.00,226.05 L 168.00,220.89 L 174.00,216.78 L 180.00,214.24 L 186.00,213.31 L 192.00,213.64 L 198.00,214.60 L 204.00,215.53 L 210.00,215.98 L 216.00,215.86 L 222.00,215.49 L 228.00,215.45 L 234.00,216.38 L 240.00,218.73 L 246.00,222.55 L 252.00,227.50 L 258.00,232.81 L 264.00,237.61 L 270.00,241.09 L 276.00,242.79 L 282.00,242.69 L 288.00,241.19 L 294.00,239.00 L 300.00,236.81 L 306.00,235.15 L 312.00,234.15 L 318.00,233.57 L 324.00,232.86 L 330.00,231.42 L 336.00,228.83 L 342.00,225.03 L 348.00,220.40 L 354.00,215.65 L 360.00,211.65 L 366.00,209.16 L 372.00,208.60 L 378.00,209.93 L 384.00,212.68 L 390.00,216.11 L 396.00,219.43 L 402.00,222.08 L 408.00,223.88 L 414.00,225.03 L 420.00,226.05 L 426.00,227.52 L 432.00,229.86 L 438.00,233.15 L 444.00,237.03 L 450.00,240.83 L 456.00,243.72 L 462.00,245.00 L 468.00,244.30 L 474.00,241.73 L 480.00,237.81 L 486.00,233.36 L 492.00,229.19 L 498.00,225.91 L 504.00,223.75 L 510.00,222.51" fill="none" stroke="white" stroke-opacity="0.25" stroke-width="3"/>
<path d="M 0.00,239.59 L 6.00,238.73 L 12.00,235.17 L 18.00,229.70 L 24.00,224.15 L 30.00,220.70 L 36.00,220.98 L 42.00,225.34 L 48.00,232.68 L 54.00,240.75 L 60.00,247.06 L 66.00,249.76 L 72.00,248.33 L 78.00,243.71 L 84.00,237.87 L 90.00,232.97 L 96.00,230.48 L 102.00,230.63 L 108.00,232.46 L 114.00,234.31 L 120.00,234.64 L 126.00,232.83 L 132.00,229.45 L 138.00,226.07 L 144.00,224.58 L 150.00,226.33 L 156.00,231.45 L 162.00,238.68 L 168.00,245.80 L 174.00,250.43 L 180.00,250.97 L 186.00,247.23 L 192.00,240.50 L 198.00,233.03 L 204.00,227.19 L 210.00,224.54 L 216.00,225.32 L 222.00,228.44 L 228.00,232.06 L 234.00,234.43 L 240.00,234.68 L 246.00,233.14 L 252.00,231.16 L 258.00,230.44 L 264.00,232.20 L 270.00,236.54 L 276.00,242.28 L 282.00,247.36 L 288.00,249.70 L 294.00,248.03 L 300.00,242.48 L 306.00,234.62 L 312.00,226.87 L 318.00,221.61 L 324.00,220.31 L 330.00,222.97 L 336.00,228.25 L 342.00,233.99 L 348.00,238.20 L 354.00,239.77 L 360.00,238.90 L 366.00,236.87 L 372.00,235.39 L 378.00,235.76 L 384.00,238.22 L 390.00,241.81 L 396.00,244.76 L 402.00,245.27 L 408.00,242.34 L 414.00,236.31 L 420.00,228.84 L 426.00,222.31 L 432.00,218.93 L 438.00,219.87 L 444.00,224.81 L 450.00,232.07 L 456.00,239.23 L 462.00,244.12 L 468.00,245.58 L 474.00,243.85 L 480.00,240.35 L 486.00,236.98 L 492.00,235.27 L 498.00,235.72 L 504.00,237.59 L 510.00,239.33" fill="none" stroke="white" stroke-opacity="0.25" stroke-width="3"/>
<path d="M 0.00,231.52 L 6.00,230.86 L 12.00,233.07 L 18.00,237.81 L 24.00,243.89 L 30.00,249.73 L 36.00,253.82 L 42.00,255.23 L 48.00,253.87 L 54.00,250.56 L 60.00,246.67 L 66.00,243.69 L 72.00,242.71 L 78.00,244.03 L 84.00,247.09 L 90.00,250.64 L 96.00,253.18 L 102.00,253.48 L 108.00,251.02 L 114.00,246.19 L 120.00,240.13 L 126.00,234.46 L 132.00,230.66 L 138.00,229.66 L 144.00,231.51 L 150.00,235.40 L 156.00,239.90 L 162.00,243.50 L 168.00,245.09 L 174.00,244.33 L 180.00,241.75 L 186.00,238.59 L 192.00,236.32 L 198.00,236.16 L 204.00,238.61 L 210.00,243.32 L 216.00,249.10 L 222.00,254.40 L 228.00,257.71 L 234.00,258.15 L 240.00,255.69 L 246.00,251.18 L 252.00,246.07 L 258.00,241.89 L 264.00,239.80 L 270.00,240.16 L 276.00,242.44 L 282.00,245.43 L 288.00,247.67 L 294.00,247.94 L 300.00,245.72 L 306.00,241.38 L 312.00,236.05 L 318.00,231.30 L 324.00,228.59 L 330.00,228.77 L 336.00,231.85 L 342.00,236.94 L 348.00,242.57 L 354.00,247.18 L 360.00,249.59 L 366.00,249.43 L 372.00,247.22 L 378.00,244.15 L 384.00,241.70 L 390.00,241.09 L 396.00,242.87 L 402.00,246.69 L 408.00,251.42 L 414.00,255.55 L 420.00,257.65 L 426.00,256.87 L 432.00,253.26 L 438.00,247.71 L 444.00,241.73 L 450.00,236.90 L 456.00,234.40 L 462.00,234.60 L 468.00,237.00 L 474.00,240.37 L 480.00,243.24 L 486.00,244.36 L 492.00,243.16 L 498.00,239.95 L 504.00,235.84 L 510.00,232.31" fill="none" stroke="white" stroke-opacity="0.25" stroke-width="3"/>
<path d="M 0.00,248.82 L 6.00,249.07 L 12.00,249.05 L 18.00,248.07 L 24.00,246.06 L 30.00,243.59 L 36.00,241.69 L 42.00,241.38 L 48.00,243.25 L 54.00,247.17 L 60.00,252.25 L 66.00,257.21 L 72.00,260.79 L 78.00,262.24 L 84.00,261.58 L 90.00,259.52 L 96.00,257.11 L 102.00,255.33 L 108.00,254.60 L 114.00,254.73 L 120.00,254.94 L 126.00,254.34 L 132.00,252.32 L 138.00,248.90 L 144.00,244.80 L 150.00,241.19 L 156.00,239.26 L 162.00,239.70 L 168.00,242.47 L 174.00,246.80 L 180.00,251.42 L 186.00,255.15 L 192.00,257.23 L 198.00,257.64 L 204.00,257.03 L 210.00,256.31 L 216.00,256.31 L 222.00,257.28 L 228.00,258.85 L 234.00,260.12 L 240.00,260.10 L 246.00,258.15 L 252.00,254.30 L 258.00,249.33 L 264.00,244.50 L 270.00,241.08 L 276.00,239.90 L 282.00,241.02 L 288.00,243.78 L 294.00,247.07 L 300.00,249.81 L 306.00,251.36 L 312.00,251.77 L 318.00,251.68 L 324.00,251.99 L 330.00,253.40 L 336.00,256.04 L 342.00,259.36 L 348.00,262.30 L 354.00,263.74 L 360.00,262.91 L 366.00,259.78 L 372.00,255.09 L 378.00,250.08 L 384.00,246.02 L 390.00,243.78 L 396.00,243.50 L 402.00,244.61 L 408.00,246.16 L 414.00,247.21 L 420.00,247.28 L 426.00,246.59 L 432.00,245.87 L 438.00,246.09 L 444.00,247.93 L 450.00,251.47 L 456.00,256.06 L 462.00,260.53 L 468.00,263.61 L 474.00,264.43 L 480.00,262.82 L 486.00,259.42 L 492.00,255.35 L 498.00,251.81 L 504.00,249.60 L 510.00,248.83" fill="none" stroke="white" stroke-opacity="0.25" stroke-width="3"/>
<path d="M 0.00,262.85 L 6.00,264.68 L 12.00,265.54 L 18.00,265.70 L 24.00,265.64 L 30.00,265.83 L 36.00,266.52 L 42.00,267.59 L 48.00,268.62 L 54.00,269.07 L 60.00,268.48 L 66.00,266.71 L 72.00,263.99 L 78.00,260.90 L 84.00,258.07 L 90.00,256.04 L 96.00,254.97 L 102.00,254.69 L 108.00,254.75 L 114.00,254.64 L 120.00,254.07 L 126.00,253.06 L 132.00,251.97 L 138.00,251.34 L 144.00,251.68 L 150.00,253.20 L 156.00,255.74 L 162.00,258.81 L 168.00,261.75 L 174.00,263.99 L 180.00,265.27 L 186.00,265.69 L 192.00,265.66 L 198.00,265.69 L 204.00,266.15 L 210.00,267.08 L 216.00,268.20 L 222.00,268.98 L 228.00,268.89 L 234.00,267.63 L 240.00,265.29 L 246.00,262.28 L 252.00,259.26 L 258.00,256.82 L 264.00,255.33 L 270.00,254.74 L 276.00,254.71 L 282.00,254.74 L 288.00,254.39 L 294.00,253.55 L 300.00,252.43 L 306.00,251.53 L 312.00,251.39 L 318.00,252.38 L 324.00,254.51 L 330.00,257.42 L 336.00,260.50 L 342.00,263.10 L 348.00,264.82 L 354.00,265.58 L 360.00,265.70 L 366.00,265.64 L 372.00,265.88 L 378.00,266.62 L 384.00,267.71 L 390.00,268.71 L 396.00,269.06 L 402.00,268.34 L 408.00,266.44 L 414.00,263.66 L 420.00,260.56 L 426.00,257.80 L 432.00,255.87 L 438.00,254.91 L 444.00,254.69 L 450.00,254.75 L 456.00,254.61 L 462.00,253.98 L 468.00,252.93 L 474.00,251.87 L 480.00,251.33 L 486.00,251.79 L 492.00,253.44 L 498.00,256.07 L 504.00,259.15 L 510.00,262.04" fill="none" stroke="white" stroke-opacity="0.25" stroke-width="3"/>
<path d="M 0.00,265.69 L 6.00,265.73 L 12.00,266.45 L 18.00,268.45 L 24.00,271.66 L 30.00,275.23 L 36.00,277.84 L 42.00,278.37 L 48.00,276.38 L 54.00,272.42 L 60.00,267.77 L 66.00,263.89 L 72.00,261.82 L 78.00,261.71 L 84.00,262.93 L 90.00,264.45 L 96.00,265.44 L 102.00,265.69 L 108.00,265.72 L 114.00,266.36 L 120.00,268.28 L 126.00,271.43 L 132.00,275.00 L 138.00,277.72 L 144.00,278.41 L 150.00,276.58 L 156.00,272.72 L 162.00,268.07 L 168.00,264.10 L 174.00,261.89 L 180.00,261.67 L 186.00,262.83 L 192.00,264.36 L 198.00,265.39 L 204.00,265.69 L 210.00,265.71 L 216.00,266.29 L 222.00,268.10 L 228.00,271.19 L 234.00,274.78 L 240.00,277.59 L 246.00,278.44 L 252.00,276.78 L 258.00,273.02 L 264.00,268.37 L 270.00,264.32 L 276.00,261.98 L 282.00,261.63 L 288.00,262.73 L 294.00,264.27 L 300.00,265.35 L 306.00,265.69 L 312.00,265.70 L 318.00,266.21 L 324.00,267.94 L 330.00,270.96 L 336.00,274.55 L 342.00,277.46 L 348.00,278.46 L 354.00,276.96 L 360.00,273.31 L 366.00,268.68 L 372.00,264.55 L 378.00,262.07 L 384.00,261.60 L 390.00,262.63 L 396.00,264.17 L 402.00,265.30 L 408.00,265.68 L 414.00,265.69 L 420.00,266.15 L 426.00,267.78 L 432.00,270.73 L 438.00,274.31 L 444.00,277.31 L 450.00,278.47 L 456.00,277.14 L 462.00,273.60 L 468.00,268.99 L 474.00,264.78 L 480.00,262.17 L 486.00,261.57 L 492.00,262.53 L 498.00,264.07 L 504.00,265.25 L 510.00,265.68" fill="none" stroke="white" stroke-opacity="0.25" stroke-width="3"/>
<path d="M 0.00,272.34 L 6.00,280.91 L 12.00,289.37 L 18.00,294.70 L 24.00,294.86 L 30.00,289.72 L 36.00,281.14 L 42.00,272.15 L 48.00,265.65 L 54.00,263.28 L 60.00,264.84 L 66.00,268.73 L 72.00,272.89 L 78.00,275.88 L 84.00,277.53 L 90.00,278.69 L 96.00,280.54 L 102.00,283.58 L 108.00,287.11 L 114.00,289.44 L 120.00,288.71 L 126.00,284.00 L 132.00,276.06 L 138.00,267.21 L 144.00,260.53 L 150.00,258.53 L 156.00,262.02 L 162.00,269.76 L 168.00,278.98 L 174.00,286.56 L 180.00,290.38 L 186.00,290.00 L 192.00,286.66 L 198.00,282.39 L 204.00,278.92 L 210.00,276.88 L 216.00,275.69 L 222.00,274.17 L 228.00,271.52 L 234.00,268.00 L 240.00,265.05 L 246.00,264.59 L 252.00,267.96 L 258.00,275.02 L 264.00,283.90 L 270.00,291.63 L 276.00,295.38 L 282.00,293.68 L 288.00,287.11 L 294.00,278.03 L 300.00,269.59 L 306.00,264.38 L 312.00,263.42 L 318.00,265.99 L 324.00,270.18 L 330.00,274.05 L 336.00,276.55 L 342.00,277.91 L 348.00,279.19 L 354.00,281.43 L 360.00,284.77 L 366.00,288.12 L 372.00,289.61 L 378.00,287.58 L 384.00,281.62 L 390.00,273.06 L 396.00,264.59 L 402.00,259.26 L 408.00,259.10 L 414.00,264.24 L 420.00,272.83 L 426.00,281.82 L 432.00,288.31 L 438.00,290.69 L 444.00,289.12 L 450.00,285.24 L 456.00,281.08 L 462.00,278.08 L 468.00,276.44 L 474.00,275.27 L 480.00,273.42 L 486.00,270.39 L 492.00,266.86 L 498.00,264.53 L 504.00,265.26 L 510.00,269.97" fill="none" stroke="white" stroke-opacity="0.25" stroke-width="3"/>
<path d="M 0.00,269.46 L 6.00,271.98 L 12.00,276.70 L 18.00,282.33 L 24.00,287.59 L 30.00,291.56 L 36.00,293.92 L 42.00,294.89 L 48.00,295.00 L 54.00,294.70 L 60.00,294.12 L 66.00,293.04 L 72.00,290.99 L 78.00,287.64 L 84.00,283.05 L 90.00,277.83 L 96.00,273.09 L 102.00,270.11 L 108.00,269.85 L 114.00,272.66 L 120.00,278.04 L 126.00,284.77 L 132.00,291.32 L 138.00,296.27 L 144.00,298.77 L 150.00,298.71 L 156.00,296.65 L 162.00,293.50 L 168.00,290.16 L 174.00,287.15 L 180.00,284.54 L 186.00,282.10 L 192.00,279.51 L 198.00,276.76 L 204.00,274.24 L 210.00,272.71 L 216.00,273.00 L 222.00,275.65 L 228.00,280.60 L 234.00,287.03 L 240.00,293.59 L 246.00,298.76 L 252.00,301.33 L 258.00,300.76 L 264.00,297.38 L 270.00,292.21 L 276.00,286.57 L 282.00,281.67 L 288.00,278.23 L 294.00,276.38 L 300.00,275.75 L 306.00,275.82 L 312.00,276.21 L 318.00,276.92 L 324.00,278.27 L 330.00,280.72 L 336.00,284.52 L 342.00,289.43 L 348.00,294.62 L 354.00,298.91 L 360.00,301.07 L 366.00,300.30 L 372.00,296.54 L 378.00,290.55 L 384.00,283.70 L 390.00,277.55 L 396.00,273.36 L 402.00,271.74 L 408.00,272.55 L 414.00,275.08 L 420.00,278.38 L 426.00,281.65 L 432.00,284.51 L 438.00,287.03 L 444.00,289.50 L 450.00,292.15 L 456.00,294.89 L 462.00,297.17 L 468.00,298.19 L 474.00,297.14 L 480.00,293.68 L 486.00,288.12 L 492.00,281.48 L 498.00,275.21 L 504.00,270.81 L 510.00,269.27" fill="none" stroke="white" stroke-opacity="0.25" stroke-width="3"/>
<path d="M 0.00,299.43 L 6.00,293.61 L 12.00,288.72 L 18.00,286.27 L 24.00,286.65 L 30.00,289.14 L 36.00,292.30 L 42.00,294.63 L 48.00,295.30 L 54.00,294.39 L 60.00,292.86 L 66.00,291.98 L 72.00,292.71 L 78.00,295.15 L 84.00,298.45 L 90.00,301.10 L 96.00,301.62 L 102.00,299.25 L 108.00,294.37 L 114.00,288.44 L 120.00,283.53 L 126.00,281.53 L 132.00,283.35 L 138.00,288.55 L 144.00,295.47 L 150.00,301.79 L 156.00,305.45 L 162.00,305.36 L 168.00,301.78 L 174.00,296.20 L 180.00,290.66 L 186.00,287.01 L 192.00,286.15 L 198.00,287.86 L 204.00,290.92 L 210.00,293.77 L 216.00,295.22 L 222.00,294.94 L 228.00,293.54 L 234.00,292.22 L 240.00,292.16 L 246.00,293.89 L 252.00,296.96 L 258.00,300.10 L 264.00,301.72 L 270.00,300.67 L 276.00,296.78 L 282.00,291.07 L 288.00,285.45 L 294.00,281.98 L 300.00,282.07 L 306.00,285.91 L 312.00,292.32 L 318.00,299.20 L 324.00,304.25 L 330.00,305.88 L 336.00,303.73 L 342.00,298.80 L 348.00,292.99 L 354.00,288.31 L 360.00,286.18 L 366.00,286.85 L 372.00,289.49 L 378.00,292.62 L 384.00,294.80 L 390.00,295.26 L 396.00,294.23 L 402.00,292.71 L 408.00,291.98 L 414.00,292.91 L 420.00,295.50 L 426.00,298.80 L 432.00,301.28 L 438.00,301.51 L 444.00,298.82 L 450.00,293.72 L 456.00,287.80 L 462.00,283.14 L 468.00,281.54 L 474.00,283.78 L 480.00,289.28 L 486.00,296.24 L 492.00,302.36 L 498.00,305.63 L 504.00,305.11 L 510.00,301.22" fill="none" stroke="white" stroke-opacity="0.25" stroke-width="3"/>
<path d="M 0.00,303.76 L 6.00,304.41 L 12.00,304.64 L 18.00,303.98 L 24.00,302.26 L 30.00,299.68 L 36.00,296.76 L 42.00,294.15 L 48.00,292.42 L 54.00,291.90 L 60.00,292.54 L 66.00,293.96 L 72.00,295.57 L 78.00,296.77 L 84.00,297.15 L 90.00,296.64 L 96.00,295.53 L 102.00,294.34 L 108.00,293.71 L 114.00,294.10 L 120.00,295.68 L 126.00,298.25 L 132.00,301.30 L 138.00,304.19 L 144.00,306.32 L 150.00,307.37 L 156.00,307.36 L 162.00,306.66 L 168.00,305.86 L 174.00,305.53 L 180.00,306.06 L 186.00,307.51 L 192.00,309.57 L 198.00,311.68 L 204.00,313.20 L 210.00,313.64 L 216.00,312.82 L 222.00,310.92 L 228.00,308.43 L 234.00,305.99 L 240.00,304.18 L 246.00,303.32 L 252.00,303.38 L 258.00,303.99 L 264.00,304.57 L 270.00,304.53 L 276.00,303.52 L 282.00,301.47 L 288.00,298.72 L 294.00,295.83 L 300.00,293.45 L 306.00,292.11 L 312.00,291.99 L 318.00,292.95 L 324.00,294.51 L 330.00,296.05 L 336.00,297.00 L 342.00,297.07 L 348.00,296.32 L 354.00,295.11 L 360.00,294.04 L 366.00,293.71 L 372.00,294.50 L 378.00,296.45 L 384.00,299.25 L 390.00,302.32 L 396.00,305.01 L 402.00,306.80 L 408.00,307.47 L 414.00,307.17 L 420.00,306.37 L 426.00,305.67 L 432.00,305.60 L 438.00,306.45 L 444.00,308.15 L 450.00,310.30 L 456.00,312.28 L 462.00,313.48 L 468.00,313.51 L 474.00,312.29 L 480.00,310.12 L 486.00,307.58 L 492.00,305.30 L 498.00,303.78 L 504.00,303.25 L 510.00,303.55" fill="none" stroke="white" stroke-opacity="0.25" stroke-width="3"/>
<path d="M 0.00,314.89 L 6.00,320.87 L 12.00,323.73 L 18.00,322.39 L 24.00,318.16 L 30.00,313.95 L 36.00,312.42 L 42.00,314.32 L 48.00,318.07 L 54.00,320.72 L 60.00,319.84 L 66.00,315.05 L 72.00,308.32 L 78.00,302.76 L 84.00,300.79 L 90.00,302.65 L 96.00,306.30 L 102.00,308.76 L 108.00,307.97 L 114.00,304.08 L 120.00,299.42 L 126.00,297.02 L 132.00,298.73 L 138.00,304.07 L 144.00,310.46 L 150.00,314.84 L 156.00,315.49 L 162.00,313.05 L 168.00,310.09 L 174.00,309.45 L 180.00,312.42 L 186.00,317.93 L 192.00,323.13 L 198.00,325.17 L 204.00,322.93 L 210.00,317.71 L 216.00,312.44 L 222.00,309.87 L 228.00,310.87 L 234.00,313.96 L 240.00,316.24 L 246.00,315.24 L 252.00,310.55 L 258.00,304.04 L 264.00,298.84 L 270.00,297.38 L 276.00,299.94 L 282.00,304.51 L 288.00,308.06 L 294.00,308.41 L 300.00,305.61 L 306.00,301.89 L 312.00,300.22 L 318.00,302.49 L 324.00,308.24 L 330.00,314.93 L 336.00,319.48 L 342.00,320.07 L 348.00,317.30 L 354.00,313.72 L 360.00,312.21 L 366.00,314.18 L 372.00,318.65 L 378.00,322.87 L 384.00,324.01 L 390.00,320.91 L 396.00,314.88 L 402.00,308.84 L 408.00,305.62 L 414.00,306.19 L 420.00,309.14 L 426.00,311.61 L 432.00,311.07 L 438.00,307.02 L 444.00,301.26 L 450.00,296.85 L 456.00,296.23 L 462.00,299.72 L 468.00,305.31 L 474.00,309.92 L 480.00,311.28 L 486.00,309.31 L 492.00,306.16 L 498.00,304.77 L 504.00,307.08 L 510.00,312.68" fill="none" stroke="white" stroke-opacity="0.25" stroke-width="3"/>
<path d="M 0.00,322.05 L 6.00,325.26 L 12.00,327.00 L 18.00,327.58 L 24.00,327.34 L 30.00,326.43 L 36.00,324.74 L 42.00,322.02 L 48.00,318.20 L 54.00,313.61 L 60.00,309.14 L 66.00,306.03 L 72.00,305.48 L 78.00,308.17 L 84.00,313.88 L 90.00,321.40 L 96.00,328.83 L 102.00,334.12 L 108.00,335.73 L 114.00,333.17 L 120.00,327.13 L 126.00,319.29 L 132.00,311.79 L 138.00,306.51 L 144.00,304.56 L 150.00,306.01 L 156.00,310.01 L 162.00,315.18 L 168.00,320.17 L 174.00,324.02 L 180.00,326.39 L 186.00,327.44 L 192.00,327.53 L 198.00,326.92 L 204.00,325.61 L 210.00,323.37 L 216.00,320.02 L 222.00,315.69 L 228.00,311.03 L 234.00,307.16 L 240.00,305.35 L 246.00,306.57 L 252.00,311.03 L 258.00,317.94 L 264.00,325.67 L 270.00,332.15 L 276.00,335.53 L 282.00,334.81 L 288.00,330.15 L 294.00,322.86 L 300.00,314.95 L 306.00,308.49 L 312.00,304.99 L 318.00,304.98 L 324.00,308.00 L 330.00,312.83 L 336.00,318.05 L 342.00,322.48 L 348.00,325.52 L 354.00,327.12 L 360.00,327.59 L 366.00,327.27 L 372.00,326.29 L 378.00,324.49 L 384.00,321.65 L 390.00,317.71 L 396.00,313.08 L 402.00,308.70 L 408.00,305.82 L 414.00,305.62 L 420.00,308.67 L 426.00,314.65 L 432.00,322.27 L 438.00,329.55 L 444.00,334.50 L 450.00,335.65 L 456.00,332.65 L 462.00,326.31 L 468.00,318.40 L 474.00,311.06 L 480.00,306.12 L 486.00,304.56 L 492.00,306.35 L 498.00,310.55 L 504.00,315.77 L 510.00,320.66" fill="none" stroke="white" stroke-opacity="0.25" stroke-width="3"/>
<path d="M 0.00,342.77 L 6.00,346.48 L 12.00,346.88 L 18.00,343.72 L 24.00,337.48 L 30.00,329.30 L 36.00,320.70 L 42.00,313.33 L 48.00,308.55 L 54.00,307.23 L 60.00,309.49 L 66.00,314.77 L 72.00,321.93 L 78.00,329.54 L 84.00,336.15 L 90.00,340.67 L 96.00,342.49 L 102.00,341.62 L 108.00,338.60 L 114.00,334.31 L 120.00,329.74 L 126.00,325.77 L 132.00,322.92 L 138.00,321.36 L 144.00,320.88 L 150.00,321.08 L 156.00,321.49 L 162.00,321.79 L 168.00,321.91 L 174.00,322.03 L 180.00,322.53 L 186.00,323.83 L 192.00,326.19 L 198.00,329.58 L 204.00,333.61 L 210.00,337.55 L 216.00,340.50 L 222.00,341.58 L 228.00,340.20 L 234.00,336.24 L 240.00,330.14 L 246.00,322.89 L 252.00,315.82 L 258.00,310.35 L 264.00,307.68 L 270.00,308.48 L 276.00,312.75 L 282.00,319.79 L 288.00,328.29 L 294.00,336.65 L 300.00,343.30 L 306.00,346.98 L 312.00,347.09 L 318.00,343.73 L 324.00,337.67 L 330.00,330.19 L 336.00,322.77 L 342.00,316.75 L 348.00,313.10 L 354.00,312.20 L 360.00,313.87 L 366.00,317.43 L 372.00,321.92 L 378.00,326.37 L 384.00,330.01 L 390.00,332.43 L 396.00,333.59 L 402.00,333.79 L 408.00,333.47 L 414.00,333.07 L 420.00,332.84 L 426.00,332.76 L 432.00,332.56 L 438.00,331.83 L 444.00,330.20 L 450.00,327.47 L 456.00,323.81 L 462.00,319.71 L 468.00,316.00 L 474.00,313.58 L 480.00,313.28 L 486.00,315.53 L 492.00,320.29 L 498.00,326.90 L 504.00,334.25 L 510.00,340.94" fill="none" stroke="white" stroke-opacity="0.25" stroke-width="3"/>
<path d="M 0.00,343.11 L 6.00,350.01 L 12.00,354.86 L 18.00,355.67 L 24.00,351.40 L 30.00,342.51 L 36.00,331.01 L 42.00,320.00 L 48.00,312.63 L 54.00,311.11 L 60.00,315.92 L 66.00,325.65 L 72.00,337.48 L 78.00,348.10 L 84.00,354.81 L 90.00,356.33 L 96.00,353.00 L 102.00,346.47 L 108.00,338.98 L 114.00,332.46 L 120.00,328.00 L 126.00,325.67 L 132.00,324.89 L 138.00,324.90 L 144.00,325.38 L 150.00,326.57 L 156.00,329.13 L 162.00,333.62 L 168.00,339.95 L 174.00,347.07 L 180.00,353.09 L 186.00,355.90 L 192.00,353.94 L 198.00,346.94 L 204.00,336.26 L 210.00,324.62 L 216.00,315.28 L 222.00,310.99 L 228.00,313.05 L 234.00,320.88 L 240.00,332.18 L 246.00,343.72 L 252.00,352.43 L 258.00,356.31 L 264.00,354.99 L 270.00,349.63 L 276.00,342.29 L 282.00,335.14 L 288.00,329.70 L 294.00,326.47 L 300.00,325.10 L 306.00,324.83 L 312.00,325.10 L 318.00,325.91 L 324.00,327.77 L 330.00,331.37 L 336.00,336.95 L 342.00,343.91 L 348.00,350.69 L 354.00,355.18 L 360.00,355.45 L 366.00,350.62 L 372.00,341.31 L 378.00,329.70 L 384.00,318.94 L 390.00,312.14 L 396.00,311.34 L 402.00,316.80 L 408.00,326.92 L 414.00,338.78 L 420.00,349.07 L 426.00,355.25 L 432.00,356.18 L 438.00,352.39 L 444.00,345.65 L 450.00,338.18 L 456.00,331.85 L 462.00,327.64 L 468.00,325.52 L 474.00,324.86 L 480.00,324.93 L 486.00,325.46 L 492.00,326.77 L 498.00,329.52 L 504.00,334.24 L 510.00,340.73" fill="none" stroke="white" stroke-opacity="0.25" stroke-width="3"/>
<path d="M 0.00,348.36 L 6.00,349.79 L 12.00,349.77 L 18.00,349.19 L 24.00,349.12 L 30.00,350.27 L 36.00,352.67 L 42.00,355.65 L 48.00,358.06 L 54.00,358.82 L 60.00,357.31 L 66.00,353.70 L 72.00,348.86 L 78.00,344.07 L 84.00,340.47 L 90.00,338.64 L 96.00,338.40 L 102.00,338.95 L 108.00,339.22 L 114.00,338.37 L 120.00,336.21 L 126.00,333.27 L 132.00,330.63 L 138.00,329.42 L 144.00,330.42 L 150.00,333.62 L 156.00,338.28 L 162.00,343.19 L 168.00,347.14 L 174.00,349.37 L 180.00,349.91 L 186.00,349.44 L 192.00,349.03 L 198.00,349.59 L 204.00,351.48 L 210.00,354.32 L 216.00,357.14 L 222.00,358.74 L 228.00,358.27 L 234.00,355.52 L 240.00,351.09 L 246.00,346.11 L 252.00,341.87 L 258.00,339.22 L 264.00,338.35 L 270.00,338.68 L 276.00,339.20 L 282.00,338.91 L 288.00,337.31 L 294.00,334.61 L 300.00,331.69 L 306.00,329.72 L 312.00,329.68 L 318.00,331.95 L 324.00,336.10 L 330.00,341.06 L 336.00,345.57 L 342.00,348.61 L 348.00,349.85 L 354.00,349.71 L 360.00,349.14 L 366.00,349.18 L 372.00,350.48 L 378.00,352.99 L 384.00,355.97 L 390.00,358.25 L 396.00,358.77 L 402.00,357.00 L 408.00,353.20 L 414.00,348.31 L 420.00,343.60 L 426.00,340.17 L 432.00,338.54 L 438.00,338.45 L 444.00,339.01 L 450.00,339.19 L 456.00,338.19 L 462.00,335.90 L 468.00,332.94 L 474.00,330.40 L 480.00,329.42 L 486.00,330.67 L 492.00,334.08 L 498.00,338.84 L 504.00,343.70 L 510.00,347.48" fill="none" stroke="white" stroke-opacity="0.25" stroke-width="3"/>
<path d="M 0.00,354.44 L 6.00,355.22 L 12.00,357.40 L 18.00,360.64 L 24.00,363.64 L 30.00,364.79 L 36.00,363.22 L 42.00,359.32 L 48.00,354.55 L 54.00,350.64 L 60.00,348.57 L 66.00,348.16 L 72.00,348.24 L 78.00,347.53 L 84.00,345.55 L 90.00,342.98 L 96.00,341.28 L 102.00,341.82 L 108.00,344.97 L 114.00,349.86 L 120.00,354.75 L 126.00,358.07 L 132.00,359.24 L 138.00,358.89 L 144.00,358.39 L 150.00,358.84 L 156.00,360.39 L 162.00,362.05 L 168.00,362.35 L 174.00,360.26 L 180.00,355.91 L 186.00,350.64 L 192.00,346.22 L 198.00,343.96 L 204.00,343.95 L 210.00,345.16 L 216.00,346.16 L 222.00,346.05 L 228.00,345.07 L 234.00,344.40 L 240.00,345.43 L 246.00,348.75 L 252.00,353.74 L 258.00,358.77 L 264.00,362.15 L 270.00,362.99 L 276.00,361.71 L 282.00,359.65 L 288.00,358.22 L 294.00,357.99 L 300.00,358.40 L 306.00,358.13 L 312.00,356.02 L 318.00,351.93 L 324.00,346.92 L 330.00,342.73 L 336.00,340.84 L 342.00,341.60 L 348.00,344.13 L 354.00,346.87 L 360.00,348.58 L 366.00,349.03 L 372.00,349.10 L 378.00,350.12 L 384.00,352.95 L 390.00,357.28 L 396.00,361.71 L 402.00,364.55 L 408.00,364.70 L 414.00,362.35 L 420.00,358.80 L 426.00,355.65 L 432.00,353.92 L 438.00,353.43 L 444.00,353.06 L 450.00,351.55 L 456.00,348.43 L 462.00,344.41 L 468.00,341.05 L 474.00,339.89 L 480.00,341.53 L 486.00,345.25 L 492.00,349.45 L 498.00,352.60 L 504.00,354.05 L 510.00,354.37" fill="none" stroke="white" stroke-opacity="0.25" stroke-width="3"/>
<path d="M 0.00,352.37 L 6.00,354.67 L 12.00,358.52 L 18.00,363.07 L 24.00,367.24 L 30.00,370.00 L 36.00,370.68 L 42.00,369.10 L 48.00,365.67 L 54.00,361.22 L 60.00,356.83 L 66.00,353.53 L 72.00,352.03 L 78.00,352.56 L 84.00,354.88 L 90.00,358.30 L 96.00,361.98 L 102.00,365.09 L 108.00,367.03 L 114.00,367.57 L 120.00,366.80 L 126.00,365.09 L 132.00,362.92 L 138.00,360.74 L 144.00,358.89 L 150.00,357.53 L 156.00,356.70 L 162.00,356.38 L 168.00,356.55 L 174.00,357.23 L 180.00,358.44 L 186.00,360.18 L 192.00,362.31 L 198.00,364.54 L 204.00,366.44 L 210.00,367.51 L 216.00,367.34 L 222.00,365.75 L 228.00,362.90 L 234.00,359.28 L 240.00,355.69 L 246.00,353.00 L 252.00,351.95 L 258.00,352.93 L 264.00,355.82 L 270.00,360.02 L 276.00,364.56 L 282.00,368.36 L 288.00,370.48 L 294.00,370.40 L 300.00,368.13 L 306.00,364.25 L 312.00,359.69 L 318.00,355.56 L 324.00,352.80 L 330.00,351.98 L 336.00,353.16 L 342.00,355.94 L 348.00,359.54 L 354.00,363.12 L 360.00,365.89 L 366.00,367.37 L 372.00,367.44 L 378.00,366.31 L 384.00,364.39 L 390.00,362.17 L 396.00,360.08 L 402.00,358.38 L 408.00,357.19 L 414.00,356.53 L 420.00,356.38 L 426.00,356.72 L 432.00,357.57 L 438.00,358.97 L 444.00,360.86 L 450.00,363.06 L 456.00,365.23 L 462.00,366.91 L 468.00,367.61 L 474.00,366.97 L 480.00,364.93 L 486.00,361.74 L 492.00,358.04 L 498.00,354.65 L 504.00,352.44 L 510.00,352.05" fill="none" stroke="white" stroke-opacity="0.25" stroke-width="3"/>
<path d="M 0.00,363.00 L 6.00,365.33 L 12.00,365.68 L 18.00,365.36 L 24.00,366.18 L 30.00,369.38 L 36.00,374.94 L 42.00,381.51 L 48.00,387.00 L 54.00,389.66 L 60.00,388.86 L 66.00,385.45 L 72.00,381.26 L 78.00,378.13 L 84.00,377.04 L 90.00,377.56 L 96.00,378.17 L 102.00,377.08 L 108.00,373.25 L 114.00,366.99 L 120.00,359.89 L 126.00,354.08 L 132.00,351.19 L 138.00,351.57 L 144.00,354.20 L 150.00,357.20 L 156.00,358.88 L 162.00,358.61 L 168.00,357.10 L 174.00,356.06 L 180.00,357.22 L 186.00,361.42 L 192.00,368.06 L 198.00,375.36 L 204.00,381.21 L 210.00,384.16 L 216.00,384.10 L 222.00,382.26 L 228.00,380.50 L 234.00,380.32 L 240.00,382.03 L 246.00,384.59 L 252.00,386.18 L 258.00,385.12 L 264.00,380.81 L 270.00,374.12 L 276.00,366.95 L 282.00,361.35 L 288.00,358.57 L 294.00,358.43 L 300.00,359.54 L 306.00,360.08 L 312.00,358.78 L 318.00,355.67 L 324.00,352.05 L 330.00,349.86 L 336.00,350.67 L 342.00,354.83 L 348.00,361.27 L 354.00,367.98 L 360.00,373.02 L 366.00,375.40 L 372.00,375.58 L 378.00,375.08 L 384.00,375.67 L 390.00,378.35 L 396.00,382.77 L 402.00,387.37 L 408.00,390.16 L 414.00,389.70 L 420.00,385.89 L 426.00,379.99 L 432.00,374.05 L 438.00,369.86 L 444.00,368.11 L 450.00,368.08 L 456.00,368.11 L 462.00,366.54 L 468.00,362.66 L 474.00,357.10 L 480.00,351.66 L 486.00,348.33 L 492.00,348.39 L 498.00,351.70 L 504.00,356.82 L 510.00,361.72" fill="none" stroke="white" stroke-opacity="0.25" stroke-width="3"/>
<path d="M 0.00,382.80 L 6.00,379.10 L 12.00,376.77 L 18.00,375.46 L 24.00,374.16 L 30.00,371.94 L 36.00,368.57 L 42.00,364.78 L 48.00,361.85 L 54.00,360.87 L 60.00,362.12 L 66.00,364.87 L 72.00,367.88 L 78.00,370.10 L 84.00,371.33 L 90.00,372.25 L 96.00,373.93 L 102.00,377.11 L 108.00,381.64 L 114.00,386.48 L 120.00,390.25 L 126.00,392.05 L 132.00,391.90 L 138.00,390.69 L 144.00,389.61 L 150.00,389.36 L 156.00,389.72 L 162.00,389.72 L 168.00,388.26 L 174.00,384.86 L 180.00,380.03 L 186.00,374.99 L 192.00,371.07 L 198.00,368.90 L 204.00,368.16 L 210.00,367.83 L 216.00,366.90 L 222.00,365.06 L 228.00,362.95 L 234.00,361.75 L 240.00,362.49 L 246.00,365.38 L 252.00,369.65 L 258.00,373.98 L 264.00,377.24 L 270.00,379.15 L 276.00,380.33 L 282.00,381.86 L 288.00,384.49 L 294.00,388.12 L 300.00,391.77 L 306.00,394.14 L 312.00,394.35 L 318.00,392.48 L 324.00,389.50 L 330.00,386.67 L 336.00,384.80 L 342.00,383.79 L 348.00,382.74 L 354.00,380.60 L 360.00,376.90 L 366.00,372.12 L 372.00,367.49 L 378.00,364.32 L 384.00,363.22 L 390.00,363.86 L 396.00,365.14 L 402.00,365.98 L 408.00,365.96 L 414.00,365.60 L 420.00,365.98 L 426.00,368.07 L 432.00,372.05 L 438.00,377.11 L 444.00,381.90 L 450.00,385.26 L 456.00,386.87 L 462.00,387.35 L 468.00,387.79 L 474.00,389.04 L 480.00,391.07 L 486.00,393.02 L 492.00,393.66 L 498.00,392.17 L 504.00,388.70 L 510.00,384.26" fill="none" stroke="white" stroke-opacity="0.25" stroke-width="3"/>
<path d="M 0.00,379.02 L 6.00,385.57 L 12.00,389.95 L 18.00,390.63 L 24.00,388.53 L 30.00,386.31 L 36.00,386.53 L 42.00,389.86 L 48.00,394.60 L 54.00,397.69 L 60.00,396.58 L 66.00,390.94 L 72.00,382.99 L 78.00,376.28 L 84.00,373.70 L 90.00,375.82 L 96.00,380.71 L 102.00,385.19 L 108.00,386.84 L 114.00,385.47 L 120.00,383.09 L 126.00,382.52 L 132.00,385.48 L 138.00,391.32 L 144.00,397.26 L 150.00,400.01 L 156.00,397.76 L 162.00,391.33 L 168.00,383.71 L 174.00,378.35 L 180.00,377.21 L 186.00,379.70 L 192.00,383.22 L 198.00,384.94 L 204.00,383.62 L 210.00,380.42 L 216.00,378.10 L 222.00,379.27 L 228.00,384.53 L 234.00,391.99 L 240.00,398.21 L 246.00,400.21 L 252.00,397.18 L 258.00,390.93 L 264.00,384.80 L 270.00,381.60 L 276.00,382.07 L 282.00,384.54 L 288.00,386.16 L 294.00,384.87 L 300.00,380.77 L 306.00,376.22 L 312.00,374.34 L 318.00,377.06 L 324.00,383.82 L 330.00,391.76 L 336.00,397.32 L 342.00,398.26 L 348.00,394.90 L 354.00,389.80 L 360.00,386.08 L 366.00,385.54 L 372.00,387.55 L 378.00,389.63 L 384.00,389.10 L 390.00,384.98 L 396.00,378.74 L 402.00,373.53 L 408.00,372.37 L 414.00,376.23 L 420.00,383.45 L 426.00,390.67 L 432.00,394.72 L 438.00,394.46 L 444.00,391.29 L 450.00,388.10 L 456.00,387.37 L 462.00,389.55 L 468.00,392.80 L 474.00,394.17 L 480.00,391.58 L 486.00,385.27 L 492.00,377.82 L 498.00,372.76 L 504.00,372.48 L 510.00,376.89" fill="none" stroke="white" stroke-opacity="0.25" stroke-width="3"/>
<path d="M 0.00,409.16 L 6.00,407.71 L 12.00,406.06 L 18.00,405.43 L 24.00,406.33 L 30.00,408.31 L 36.00,410.18 L 42.00,410.50 L 48.00,408.26 L 54.00,403.31 L 60.00,396.51 L 66.00,389.40 L 72.00,383.63 L 78.00,380.33 L 84.00,379.67 L 90.00,380.88 L 96.00,382.61 L 102.00,383.54 L 108.00,382.98 L 114.00,381.15 L 120.00,379.13 L 126.00,378.36 L 132.00,379.98 L 138.00,384.37 L 144.00,390.88 L 150.00,398.07 L 156.00,404.25 L 162.00,408.16 L 168.00,409.37 L 174.00,408.47 L 180.00,406.73 L 186.00,405.53 L 192.00,405.75 L 198.00,407.36 L 204.00,409.46 L 210.00,410.63 L 216.00,409.60 L 222.00,405.81 L 228.00,399.67 L 234.00,392.49 L 240.00,385.94 L 246.00,381.46 L 252.00,379.67 L 258.00,380.19 L 264.00,381.87 L 270.00,383.29 L 276.00,383.42 L 282.00,382.06 L 288.00,379.96 L 294.00,378.46 L 300.00,378.92 L 306.00,382.10 L 312.00,387.80 L 318.00,394.90 L 324.00,401.73 L 330.00,406.76 L 336.00,409.15 L 342.00,409.06 L 348.00,407.51 L 354.00,405.92 L 360.00,405.46 L 366.00,406.52 L 372.00,408.55 L 378.00,410.32 L 384.00,410.39 L 390.00,407.84 L 396.00,402.62 L 402.00,395.70 L 408.00,388.67 L 414.00,383.13 L 420.00,380.13 L 426.00,379.74 L 432.00,381.08 L 438.00,382.77 L 444.00,383.56 L 450.00,382.82 L 456.00,380.91 L 462.00,378.96 L 468.00,378.40 L 474.00,380.34 L 480.00,385.01 L 486.00,391.67 L 492.00,398.83 L 498.00,404.82 L 504.00,408.42 L 510.00,409.35" fill="none" stroke="white" stroke-opacity="0.25" stroke-width="3"/>
<path d="M 0.00,389.58 L 6.00,391.23 L 12.00,395.31 L 18.00,400.59 L 24.00,405.69 L 30.00,409.48 L 36.00,411.32 L 42.00,411.21 L 48.00,409.60 L 54.00,407.22 L 60.00,404.76 L 66.00,402.67 L 72.00,401.10 L 78.00,399.93 L 84.00,398.92 L 90.00,397.98 L 96.00,397.21 L 102.00,396.94 L 108.00,397.62 L 114.00,399.56 L 120.00,402.76 L 126.00,406.76 L 132.00,410.69 L 138.00,413.47 L 144.00,414.11 L 150.00,412.08 L 156.00,407.52 L 162.00,401.35 L 168.00,394.99 L 174.00,390.10 L 180.00,388.06 L 186.00,389.57 L 192.00,394.40 L 198.00,401.45 L 204.00,408.97 L 210.00,415.07 L 216.00,418.21 L 222.00,417.63 L 228.00,413.54 L 234.00,407.07 L 240.00,399.89 L 246.00,393.81 L 252.00,390.22 L 258.00,389.80 L 264.00,392.37 L 270.00,397.00 L 276.00,402.37 L 282.00,407.14 L 288.00,410.32 L 294.00,411.49 L 300.00,410.80 L 306.00,408.85 L 312.00,406.38 L 318.00,404.01 L 324.00,402.10 L 330.00,400.68 L 336.00,399.58 L 342.00,398.60 L 348.00,397.69 L 354.00,397.04 L 360.00,397.04 L 366.00,398.11 L 372.00,400.50 L 378.00,404.04 L 384.00,408.13 L 390.00,411.80 L 396.00,413.96 L 402.00,413.73 L 408.00,410.81 L 414.00,405.58 L 420.00,399.17 L 426.00,393.12 L 432.00,389.06 L 438.00,388.16 L 444.00,390.85 L 450.00,396.58 L 456.00,404.00 L 462.00,411.25 L 468.00,416.51 L 474.00,418.44 L 480.00,416.62 L 486.00,411.57 L 492.00,404.66 L 498.00,397.66 L 504.00,392.29 L 510.00,389.72" fill="none" stroke="white" stroke-opacity="0.25" stroke-width="3"/>
<path d="M 0.00,408.21 L 6.00,407.44 L 12.00,410.24 L 18.00,416.22 L 24.00,423.30 L 30.00,428.74 L 36.00,430.55 L 42.00,428.51 L 48.00,424.25 L 54.00,420.42 L 60.00,419.28 L 66.00,421.55 L 72.00,426.00 L 78.00,430.12 L 84.00,431.42 L 90.00,428.70 L 96.00,422.73 L 102.00,415.81 L 108.00,410.65 L 114.00,408.95 L 120.00,410.54 L 126.00,413.51 L 132.00,415.22 L 138.00,413.67 L 144.00,408.58 L 150.00,401.57 L 156.00,395.29 L 162.00,392.15 L 168.00,393.01 L 174.00,396.80 L 180.00,401.07 L 186.00,403.28 L 192.00,402.11 L 198.00,398.15 L 204.00,393.60 L 210.00,391.15 L 216.00,392.51 L 222.00,397.60 L 228.00,404.51 L 234.00,410.52 L 240.00,413.46 L 246.00,412.83 L 252.00,410.03 L 258.00,407.62 L 264.00,407.95 L 270.00,411.95 L 276.00,418.60 L 282.00,425.42 L 288.00,429.80 L 294.00,430.25 L 300.00,427.21 L 306.00,422.79 L 312.00,419.66 L 318.00,419.68 L 324.00,422.90 L 330.00,427.55 L 336.00,430.96 L 342.00,430.96 L 348.00,426.98 L 354.00,420.39 L 360.00,413.78 L 366.00,409.67 L 372.00,409.18 L 378.00,411.50 L 384.00,414.35 L 390.00,415.12 L 396.00,412.32 L 402.00,406.34 L 408.00,399.25 L 414.00,393.82 L 420.00,392.01 L 426.00,394.05 L 432.00,398.31 L 438.00,402.14 L 444.00,403.28 L 450.00,401.01 L 456.00,396.56 L 462.00,392.44 L 468.00,391.14 L 474.00,393.86 L 480.00,399.83 L 486.00,406.75 L 492.00,411.91 L 498.00,413.61 L 504.00,412.02 L 510.00,409.05" fill="none" stroke="white" stroke-opacity="0.25" stroke-width="3"/>
<path d="M 0.00,432.73 L 6.00,435.44 L 12.00,434.50 L 18.00,429.69 L 24.00,421.89 L 30.00,412.90 L 36.00,405.02 L 42.00,400.38 L 48.00,400.37 L 54.00,405.16 L 60.00,413.64 L 66.00,423.68 L 72.00,432.72 L 78.00,438.46 L 84.00,439.53 L 90.00,435.77 L 96.00,428.33 L 102.00,419.25 L 108.00,410.87 L 114.00,405.19 L 120.00,403.37 L 126.00,405.45 L 132.00,410.44 L 138.00,416.78 L 144.00,422.75 L 150.00,427.04 L 156.00,429.01 L 162.00,428.78 L 168.00,427.04 L 174.00,424.67 L 180.00,422.41 L 186.00,420.64 L 192.00,419.27 L 198.00,417.96 L 204.00,416.36 L 210.00,414.38 L 216.00,412.34 L 222.00,410.95 L 228.00,411.03 L 234.00,413.21 L 240.00,417.56 L 246.00,423.40 L 252.00,429.43 L 258.00,433.98 L 264.00,435.56 L 270.00,433.30 L 276.00,427.35 L 282.00,418.92 L 288.00,410.03 L 294.00,403.02 L 300.00,399.83 L 306.00,401.46 L 312.00,407.67 L 318.00,416.94 L 324.00,426.93 L 330.00,435.09 L 336.00,439.37 L 342.00,438.78 L 348.00,433.61 L 354.00,425.37 L 360.00,416.26 L 366.00,408.60 L 372.00,404.13 L 378.00,403.66 L 384.00,406.86 L 390.00,412.49 L 396.00,418.89 L 402.00,424.41 L 408.00,427.96 L 414.00,429.15 L 420.00,428.33 L 426.00,426.28 L 432.00,423.88 L 438.00,421.76 L 444.00,420.15 L 450.00,418.85 L 456.00,417.47 L 462.00,415.73 L 468.00,413.67 L 474.00,411.76 L 480.00,410.77 L 486.00,411.51 L 492.00,414.44 L 498.00,419.39 L 504.00,425.47 L 510.00,431.19" fill="none" stroke="white" stroke-opacity="0.25" stroke-width="3"/>
<path d="M 0.00,426.53 L 6.00,417.74 L 12.00,410.16 L 18.00,406.87 L 24.00,409.67 L 30.00,418.15 L 36.00,429.69 L 42.00,440.50 L 48.00,447.12 L 54.00,447.86 L 60.00,443.28 L 66.00,435.77 L 72.00,428.28 L 78.00,422.97 L 84.00,420.45 L 90.00,419.84 L 96.00,419.66 L 102.00,418.96 L 108.00,417.98 L 114.00,418.07 L 120.00,420.82 L 126.00,426.93 L 132.00,435.44 L 138.00,443.78 L 144.00,448.79 L 150.00,448.10 L 156.00,441.32 L 162.00,430.40 L 168.00,418.92 L 174.00,410.60 L 180.00,407.85 L 186.00,410.85 L 192.00,417.72 L 198.00,425.52 L 204.00,431.71 L 210.00,435.12 L 216.00,436.21 L 222.00,436.38 L 228.00,436.87 L 234.00,437.86 L 240.00,438.32 L 246.00,436.60 L 252.00,431.59 L 258.00,423.66 L 264.00,414.91 L 270.00,408.46 L 276.00,407.10 L 282.00,411.95 L 288.00,421.83 L 294.00,433.57 L 300.00,443.30 L 306.00,448.04 L 312.00,446.83 L 318.00,440.96 L 324.00,433.14 L 330.00,426.20 L 336.00,421.84 L 342.00,420.10 L 348.00,419.80 L 354.00,419.50 L 360.00,418.61 L 366.00,417.80 L 372.00,418.62 L 378.00,422.49 L 384.00,429.60 L 390.00,438.40 L 396.00,445.97 L 402.00,449.26 L 408.00,446.46 L 414.00,437.98 L 420.00,426.44 L 426.00,415.63 L 432.00,409.01 L 438.00,408.27 L 444.00,412.85 L 450.00,420.36 L 456.00,427.85 L 462.00,433.16 L 468.00,435.68 L 474.00,436.30 L 480.00,436.47 L 486.00,437.17 L 492.00,438.15 L 498.00,438.07 L 504.00,435.31 L 510.00,429.20" fill="none" stroke="white" stroke-opacity="0.25" stroke-width="3"/>
<path d="M 0.00,450.54 L 6.00,451.30 L 12.00,447.10 L 18.00,439.94 L 24.00,433.48 L 30.00,430.82 L 36.00,432.57 L 42.00,436.60 L 48.00,439.35 L 54.00,438.11 L 60.00,432.76 L 66.00,425.88 L 72.00,421.20 L 78.00,421.26 L 84.00,425.93 L 90.00,432.43 L 96.00,437.06 L 102.00,437.53 L 108.00,434.28 L 114.00,430.23 L 120.00,428.89 L 126.00,432.16 L 132.00,439.06 L 138.00,446.32 L 144.00,450.36 L 150.00,449.44 L 156.00,444.73 L 162.00,439.55 L 168.00,437.28 L 174.00,439.26 L 180.00,443.96 L 186.00,447.94 L 192.00,448.02 L 198.00,443.29 L 204.00,435.70 L 210.00,428.92 L 216.00,426.09 L 222.00,427.93 L 228.00,432.37 L 234.00,435.83 L 240.00,435.52 L 246.00,431.20 L 252.00,425.33 L 258.00,421.57 L 264.00,422.52 L 270.00,428.04 L 276.00,435.39 L 282.00,440.84 L 288.00,441.95 L 294.00,439.09 L 300.00,435.08 L 306.00,433.47 L 312.00,436.22 L 318.00,442.46 L 324.00,449.01 L 330.00,452.28 L 336.00,450.52 L 342.00,444.84 L 348.00,438.58 L 354.00,435.20 L 360.00,436.17 L 366.00,440.09 L 372.00,443.58 L 378.00,443.46 L 384.00,438.73 L 390.00,431.29 L 396.00,424.75 L 402.00,422.31 L 408.00,424.76 L 414.00,430.05 L 420.00,434.57 L 426.00,435.43 L 432.00,432.25 L 438.00,427.37 L 444.00,424.42 L 450.00,425.98 L 456.00,432.00 L 462.00,439.75 L 468.00,445.48 L 474.00,446.68 L 480.00,443.63 L 486.00,439.11 L 492.00,436.69 L 498.00,438.46 L 504.00,443.68 L 510.00,449.25" fill="none" stroke="white" stroke-opacity="0.25" stroke-width="3"/>
<path d="M 0.00,458.14 L 6.00,458.00 L 12.00,455.41 L 18.00,452.20 L 24.00,450.46 L 30.00,451.22 L 36.00,453.85 L 42.00,456.42 L 48.00,456.92 L 54.00,454.52 L 60.00,450.08 L 66.00,445.65 L 72.00,443.21 L 78.00,443.43 L 84.00,445.31 L 90.00,446.79 L 96.00,446.08 L 102.00,442.75 L 108.00,438.05 L 114.00,434.13 L 120.00,432.74 L 126.00,434.14 L 132.00,436.96 L 138.00,439.08 L 144.00,438.90 L 150.00,436.41 L 156.00,433.14 L 162.00,431.26 L 168.00,432.17 L 174.00,435.70 L 180.00,440.13 L 186.00,443.31 L 192.00,443.94 L 198.00,442.40 L 204.00,440.45 L 210.00,440.17 L 216.00,442.61 L 222.00,447.14 L 228.00,451.83 L 234.00,454.59 L 240.00,454.50 L 246.00,452.33 L 252.00,450.06 L 258.00,449.63 L 264.00,451.73 L 270.00,455.36 L 276.00,458.45 L 282.00,459.12 L 288.00,456.88 L 294.00,452.91 L 300.00,449.34 L 306.00,447.93 L 312.00,449.01 L 318.00,451.24 L 324.00,452.51 L 330.00,451.24 L 336.00,447.35 L 342.00,442.40 L 348.00,438.56 L 354.00,437.35 L 360.00,438.66 L 366.00,440.88 L 372.00,441.88 L 378.00,440.39 L 384.00,436.76 L 390.00,432.79 L 396.00,430.59 L 402.00,431.31 L 408.00,434.42 L 414.00,438.01 L 420.00,440.03 L 426.00,439.52 L 432.00,437.20 L 438.00,435.05 L 444.00,435.01 L 450.00,437.83 L 456.00,442.53 L 462.00,447.03 L 468.00,449.40 L 474.00,449.06 L 480.00,447.10 L 486.00,445.60 L 492.00,446.32 L 498.00,449.56 L 504.00,454.02 L 510.00,457.51" fill="none" stroke="white" stroke-opacity="0.25" stroke-width="3"/>
<path d="M 0.00,444.77 L 6.00,442.67 L 12.00,441.40 L 18.00,441.78 L 24.00,444.20 L 30.00,448.56 L 36.00,454.27 L 42.00,460.37 L 48.00,465.81 L 54.00,469.64 L 60.00,471.35 L 66.00,470.89 L 72.00,468.74 L 78.00,465.74 L 84.00,462.92 L 90.00,461.13 L 96.00,460.93 L 102.00,462.36 L 108.00,464.97 L 114.00,467.91 L 120.00,470.18 L 126.00,470.91 L 132.00,469.52 L 138.00,465.97 L 144.00,460.72 L 150.00,454.63 L 156.00,448.76 L 162.00,444.11 L 168.00,441.35 L 174.00,440.67 L 180.00,441.75 L 186.00,443.84 L 192.00,445.96 L 198.00,447.20 L 204.00,446.91 L 210.00,444.92 L 216.00,441.58 L 222.00,437.66 L 228.00,434.14 L 234.00,432.02 L 240.00,431.96 L 246.00,434.20 L 252.00,438.44 L 258.00,443.91 L 264.00,449.61 L 270.00,454.48 L 276.00,457.77 L 282.00,459.11 L 288.00,458.71 L 294.00,457.19 L 300.00,455.48 L 306.00,454.54 L 312.00,455.09 L 318.00,457.43 L 324.00,461.34 L 330.00,466.15 L 336.00,470.88 L 342.00,474.49 L 348.00,476.17 L 354.00,475.54 L 360.00,472.72 L 366.00,468.34 L 372.00,463.35 L 378.00,458.79 L 384.00,455.51 L 390.00,454.00 L 396.00,454.21 L 402.00,455.60 L 408.00,457.32 L 414.00,458.38 L 420.00,457.98 L 426.00,455.70 L 432.00,451.59 L 438.00,446.25 L 444.00,440.59 L 450.00,435.69 L 456.00,432.45 L 462.00,431.44 L 468.00,432.67 L 474.00,435.70 L 480.00,439.65 L 486.00,443.51 L 492.00,446.35 L 498.00,447.61 L 504.00,447.18 L 510.00,445.48" fill="none" stroke="white" stroke-opacity="0.25" stroke-width="3"/>
<path d="M 0.00,462.21 L 6.00,461.50 L 12.00,463.10 L 18.00,466.64 L 24.00,470.27 L 30.00,471.83 L 36.00,470.17 L 42.00,465.85 L 48.00,460.87 L 54.00,457.46 L 60.00,456.80 L 66.00,458.32 L 72.00,460.20 L 78.00,460.52 L 84.00,458.54 L 90.00,455.23 L 96.00,452.63 L 102.00,452.65 L 108.00,455.82 L 114.00,460.92 L 120.00,465.67 L 126.00,468.10 L 132.00,467.64 L 138.00,465.43 L 144.00,463.52 L 150.00,463.55 L 156.00,465.69 L 162.00,468.51 L 168.00,469.88 L 174.00,468.34 L 180.00,464.04 L 186.00,458.71 L 192.00,454.71 L 198.00,453.59 L 204.00,455.24 L 210.00,458.03 L 216.00,459.86 L 222.00,459.50 L 228.00,457.37 L 234.00,455.25 L 240.00,455.14 L 246.00,457.97 L 252.00,462.93 L 258.00,467.90 L 264.00,470.69 L 270.00,470.31 L 276.00,467.54 L 282.00,464.36 L 288.00,462.76 L 294.00,463.43 L 300.00,465.43 L 306.00,466.76 L 312.00,465.69 L 318.00,461.94 L 324.00,456.87 L 330.00,452.79 L 336.00,451.55 L 342.00,453.46 L 348.00,457.16 L 354.00,460.44 L 360.00,461.65 L 366.00,460.65 L 372.00,458.86 L 378.00,458.33 L 384.00,460.35 L 390.00,464.60 L 396.00,469.23 L 402.00,471.98 L 408.00,471.52 L 414.00,468.21 L 420.00,463.93 L 426.00,460.86 L 432.00,460.23 L 438.00,461.57 L 444.00,463.11 L 450.00,462.91 L 456.00,460.22 L 462.00,455.96 L 468.00,452.24 L 474.00,451.09 L 480.00,453.23 L 486.00,457.62 L 492.00,462.07 L 498.00,464.57 L 504.00,464.46 L 510.00,462.78" fill="none" stroke="white" stroke-opacity="0.25" stroke-width="3"/>
<path d="M 0.00,479.89 L 6.00,477.61 L 12.00,473.66 L 18.00,468.82 L 24.00,464.16 L 30.00,460.71 L 36.00,459.09 L 42.00,459.36 L 48.00,460.95 L 54.00,462.91 L 60.00,464.22 L 66.00,464.16 L 72.00,462.52 L 78.00,459.71 L 84.00,456.62 L 90.00,454.30 L 96.00,453.65 L 102.00,455.06 L 108.00,458.30 L 114.00,462.61 L 120.00,466.93 L 126.00,470.23 L 132.00,471.89 L 138.00,471.87 L 144.00,470.71 L 150.00,469.37 L 156.00,468.84 L 162.00,469.84 L 168.00,472.55 L 174.00,476.54 L 180.00,480.89 L 186.00,484.51 L 192.00,486.51 L 198.00,486.44 L 204.00,484.51 L 210.00,481.44 L 216.00,478.29 L 222.00,476.04 L 228.00,475.30 L 234.00,476.08 L 240.00,477.83 L 246.00,479.58 L 252.00,480.33 L 258.00,479.34 L 264.00,476.45 L 270.00,472.10 L 276.00,467.19 L 282.00,462.83 L 288.00,459.95 L 294.00,458.99 L 300.00,459.78 L 306.00,461.61 L 312.00,463.46 L 318.00,464.38 L 324.00,463.78 L 330.00,461.67 L 336.00,458.66 L 342.00,455.71 L 348.00,453.87 L 354.00,453.89 L 360.00,455.96 L 366.00,459.67 L 372.00,464.11 L 378.00,468.18 L 384.00,470.98 L 390.00,472.05 L 396.00,471.57 L 402.00,470.24 L 408.00,469.06 L 414.00,468.98 L 420.00,470.57 L 426.00,473.78 L 432.00,478.00 L 438.00,482.23 L 444.00,485.39 L 450.00,486.72 L 456.00,485.98 L 462.00,483.56 L 468.00,480.35 L 474.00,477.40 L 480.00,475.61 L 486.00,475.41 L 492.00,476.60 L 498.00,478.46 L 504.00,479.99 L 510.00,480.21" fill="none" stroke="white" stroke-opacity="0.25" stroke-width="3"/>
<path d="M 0.00,473.20 L 6.00,467.07 L 12.00,463.66 L 18.00,464.59 L 24.00,469.99 L 30.00,478.38 L 36.00,487.10 L 42.00,493.33 L 48.00,495.03 L 54.00,491.78 L 60.00,484.83 L 66.00,476.62 L 72.00,469.87 L 78.00,466.51 L 84.00,467.12 L 90.00,470.77 L 96.00,475.61 L 102.00,479.65 L 108.00,481.65 L 114.00,481.50 L 120.00,480.17 L 126.00,479.10 L 132.00,479.42 L 138.00,481.37 L 144.00,484.08 L 150.00,486.00 L 156.00,485.58 L 162.00,482.12 L 168.00,476.19 L 174.00,469.59 L 180.00,464.71 L 186.00,463.60 L 192.00,467.10 L 198.00,474.43 L 204.00,483.37 L 210.00,491.03 L 216.00,494.90 L 222.00,493.80 L 228.00,488.24 L 234.00,480.25 L 240.00,472.54 L 246.00,467.51 L 252.00,466.39 L 258.00,468.88 L 264.00,473.45 L 270.00,478.06 L 276.00,481.05 L 282.00,481.79 L 288.00,480.82 L 294.00,479.45 L 300.00,479.06 L 306.00,480.33 L 312.00,482.87 L 318.00,485.35 L 324.00,486.13 L 330.00,484.03 L 336.00,479.04 L 342.00,472.46 L 348.00,466.52 L 354.00,463.53 L 360.00,464.98 L 366.00,470.82 L 372.00,479.38 L 378.00,487.97 L 384.00,493.76 L 390.00,494.91 L 396.00,491.15 L 402.00,483.93 L 408.00,475.76 L 414.00,469.30 L 420.00,466.39 L 426.00,467.40 L 432.00,471.29 L 438.00,476.13 L 444.00,479.99 L 450.00,481.73 L 456.00,481.39 L 462.00,480.01 L 468.00,479.05 L 474.00,479.56 L 480.00,481.65 L 486.00,484.36 L 492.00,486.09 L 498.00,485.35 L 504.00,481.56 L 510.00,475.45" fill="none" stroke="white" stroke-opacity="0.25" stroke-width="3"/>
<path d="M 0.00,489.20 L 6.00,492.44 L 12.00,491.93 L 18.00,490.19 L 24.00,490.38 L 30.00,494.28 L 36.00,501.07 L 42.00,507.78 L 48.00,511.06 L 54.00,509.22 L 60.00,503.26 L 66.00,496.29 L 72.00,491.57 L 78.00,490.58 L 84.00,492.16 L 90.00,493.32 L 96.00,491.18 L 102.00,484.88 L 108.00,476.21 L 114.00,468.61 L 120.00,465.12 L 126.00,466.58 L 132.00,471.16 L 138.00,475.58 L 144.00,477.10 L 150.00,475.30 L 156.00,472.25 L 162.00,471.21 L 168.00,474.54 L 174.00,482.15 L 180.00,491.43 L 186.00,498.82 L 192.00,501.88 L 198.00,500.69 L 204.00,497.74 L 210.00,496.28 L 216.00,498.22 L 222.00,502.91 L 228.00,507.53 L 234.00,508.81 L 240.00,505.08 L 246.00,497.39 L 252.00,488.86 L 258.00,482.87 L 264.00,481.04 L 270.00,482.31 L 276.00,483.73 L 282.00,482.39 L 288.00,477.30 L 294.00,470.14 L 300.00,464.25 L 306.00,462.62 L 312.00,466.08 L 318.00,472.77 L 324.00,479.30 L 330.00,482.81 L 336.00,482.70 L 342.00,480.88 L 348.00,480.57 L 354.00,484.14 L 360.00,491.54 L 366.00,500.26 L 372.00,506.75 L 378.00,508.54 L 384.00,505.73 L 390.00,500.82 L 396.00,497.15 L 402.00,496.83 L 408.00,499.38 L 414.00,502.12 L 420.00,501.86 L 426.00,496.95 L 432.00,488.41 L 438.00,479.37 L 444.00,473.26 L 450.00,471.77 L 456.00,473.90 L 462.00,476.69 L 468.00,477.12 L 474.00,474.06 L 480.00,469.01 L 486.00,465.18 L 492.00,465.51 L 498.00,470.81 L 504.00,479.18 L 510.00,487.19" fill="none" stroke="white" stroke-opacity="0.25" stroke-width="3"/>
<path d="M 0.00,488.93 L 6.00,487.11 L 12.00,486.96 L 18.00,487.94 L 24.00,489.29 L 30.00,490.19 L 36.00,490.06 L 42.00,488.70 L 48.00,486.33 L 54.00,483.60 L 60.00,481.36 L 66.00,480.46 L 72.00,481.51 L 78.00,484.70 L 84.00,489.76 L 90.00,495.94 L 96.00,502.23 L 102.00,507.59 L 108.00,511.15 L 114.00,512.46 L 120.00,511.55 L 126.00,508.93 L 132.00,505.43 L 138.00,501.96 L 144.00,499.31 L 150.00,497.92 L 156.00,497.81 L 162.00,498.54 L 168.00,499.41 L 174.00,499.61 L 180.00,498.50 L 186.00,495.77 L 192.00,491.60 L 198.00,486.57 L 204.00,481.59 L 210.00,477.67 L 216.00,475.66 L 222.00,476.02 L 228.00,478.77 L 234.00,483.39 L 240.00,489.02 L 246.00,494.63 L 252.00,499.27 L 258.00,502.31 L 264.00,503.54 L 270.00,503.23 L 276.00,502.03 L 282.00,500.75 L 288.00,500.15 L 294.00,500.69 L 300.00,502.43 L 306.00,505.00 L 312.00,507.67 L 318.00,509.55 L 324.00,509.86 L 330.00,508.09 L 336.00,504.21 L 342.00,498.68 L 348.00,492.35 L 354.00,486.25 L 360.00,481.42 L 366.00,478.58 L 372.00,478.04 L 378.00,479.59 L 384.00,482.61 L 390.00,486.20 L 396.00,489.47 L 402.00,491.73 L 408.00,492.67 L 414.00,492.43 L 420.00,491.57 L 426.00,490.84 L 432.00,491.02 L 438.00,492.66 L 444.00,495.91 L 450.00,500.45 L 456.00,505.57 L 462.00,510.31 L 468.00,513.67 L 474.00,514.92 L 480.00,513.74 L 486.00,510.29 L 492.00,505.22 L 498.00,499.48 L 504.00,494.10 L 510.00,489.94" fill="none" stroke="white" stroke-opacity="0.25" stroke-width="3"/>
<path d="M 0.00,493.67 L 6.00,492.55 L 12.00,492.59 L 18.00,493.04 L 24.00,493.32 L 30.00,493.21 L 36.00,492.97 L 42.00,493.20 L 48.00,494.62 L 54.00,497.76 L 60.00,502.65 L 66.00,508.78 L 72.00,515.14 L 78.00,520.45 L 84.00,523.56 L 90.00,523.76 L 96.00,520.98 L 102.00,515.85 L 108.00,509.46 L 114.00,503.10 L 120.00,497.87 L 126.00,494.40 L 132.00,492.76 L 138.00,492.49 L 144.00,492.89 L 150.00,493.27 L 156.00,493.28 L 162.00,493.03 L 168.00,493.02 L 174.00,493.98 L 180.00,496.51 L 186.00,500.84 L 192.00,506.66 L 198.00,513.07 L 204.00,518.87 L 210.00,522.82 L 216.00,524.03 L 222.00,522.21 L 228.00,517.76 L 234.00,511.65 L 240.00,505.14 L 246.00,499.43 L 252.00,495.34 L 258.00,493.12 L 264.00,492.47 L 270.00,492.73 L 276.00,493.17 L 282.00,493.32 L 288.00,493.12 L 294.00,492.96 L 300.00,493.51 L 306.00,495.46 L 312.00,499.21 L 318.00,504.60 L 324.00,510.94 L 330.00,517.08 L 336.00,521.78 L 342.00,523.97 L 348.00,523.15 L 354.00,519.49 L 360.00,513.80 L 366.00,507.27 L 372.00,501.19 L 378.00,496.50 L 384.00,493.67 L 390.00,492.55 L 396.00,492.59 L 402.00,493.04 L 408.00,493.32 L 414.00,493.21 L 420.00,492.97 L 426.00,493.20 L 432.00,494.62 L 438.00,497.76 L 444.00,502.65 L 450.00,508.78 L 456.00,515.14 L 462.00,520.45 L 468.00,523.56 L 474.00,523.76 L 480.00,520.98 L 486.00,515.85 L 492.00,509.46 L 498.00,503.10 L 504.00,497.87 L 510.00,494.40" fill="none" stroke="white" stroke-opacity="0.25" stroke-width="3"/>
</svg>